<svg xmlns="http://www.w3.org/2000/svg" viewBox="140 330 460 510">
  <style>.st0{fill:#5E45FF;}</style>
  <path class="st0" d="m 320.48141,343.06727 c -3.8,-3.6 -10.2,-0.9 -10.2,4.4 v 17.1 c -37.3,7.4 -71.7,25 -100.2,51.5 -32,29.6 -53.9,67.7 -63.6,110.2 -0.9,3.8 1.5,7.5 5.3,8.4 0.5,0.1 1,0.2 1.6,0.2 3.2,0 6.1,-2.2 6.8,-5.4 17.3,-76.2 76.5,-134.7 150.2,-150.5 v 18.8 c 0,5.3 6.3,8 10.2,4.4 l 27.3,-25.9 c 2,-1.9 2,-5.2 0,-7.1 z"/>
  <path class="st0" d="m 586.18141,526.96727 h -20.6 c -7.7,-37.5 -25.9,-73.5 -52.1,-102.5 -30.7,-34.1 -69.6,-56.4 -112.7,-64.5 -3.8,-0.7 -7.5,1.8 -8.2,5.6 -0.7,3.8 1.8,7.5 5.6,8.2 75.1,14.2 136.2,76.1 153,153.2 h -17.3 c -5.3,0 -8,6.3 -4.4,10.2 l 25.9,26.3 c 1.9,2 5.2,2 7.1,0 l 27.9,-26.3 c 3.8,-3.9 1.1,-10.2 -4.2,-10.2 z"/>
  <path class="st0" d="m 321.58141,772.86727 c -87.6,-15.9 -148.9,-85.9 -163.1,-149.7 l 20.5,-0.4 c 5.3,-0.1 7.9,-6.5 4.1,-10.3 l -27.5,-26.7 c -2,-2 -5.2,-1.9 -7.1,0.1 l -25.3,27.8 c -3.6,3.9 -0.7,10.2 4.6,10.1 l 16.4,-0.3 c 6.8,34.3 25.3,68.4 53.1,97.3 32.9,34.2 76.1,57.6 121.7,65.9 0.4,0.1 0.8,0.1 1.3,0.1 3.3,0 6.3,-2.4 6.9,-5.7 0.7,-3.8 -1.8,-7.5 -5.6,-8.2 z"/>
  <path class="st0" d="m 563.98141,609.76727 c -3.8,-0.8 -7.5,1.6 -8.3,5.4 -15.8,75.8 -77,139.7 -145.7,154.6 v -18.8 c 0,-5.6 -6.7,-8.5 -10.8,-4.6 l -28.9,27.5 c -2.1,2 -2.1,5.5 0,7.5 l 28.9,27.5 c 4.1,3.9 10.8,1 10.8,-4.6 v -20.2 c 35.2,-7 69.7,-26.1 98.2,-54.6 30.9,-31 52.6,-70.5 61.1,-111.3 0.9,-3.9 -1.5,-7.6 -5.3,-8.4 z"/>
  <path class="st0" d="m 303.2602,509.91752 -65.66914,38.16224 v 75.10786 l 64.51069,37.58301 69.20123,-39.89942 v -72.27044 z m 59.9357,104.17824 -55.24525,-31.79186 v -60.45716 l 55.24525,31.44451 z m -58.60408,-24.32171 52.23416,29.99696 -24.55361,14.12965 -51.88634,-29.82278 z m -4.80647,-68.50655 v 61.90476 l -54.0868,31.96599 v -62.42628 z m -48.87529,100.24066 21.42663,-12.68211 51.82863,29.7656 -22.00537,12.6821 z"/>
</svg>
