<?xml version="1.0" encoding="UTF-8" standalone="no"?>
<!-- Created with Inkscape (http://www.inkscape.org/) -->

<svg
   version="1.1"
   id="svg1"
   width="1376"
   height="768"
   viewBox="0 0 1376 768"
   sodipodi:docname="nanobanana-e2016c9f-6f30-430e-b317-255f0793a32a-1777184824512.png"
   xmlns:inkscape="http://www.inkscape.org/namespaces/inkscape"
   xmlns:sodipodi="http://sodipodi.sourceforge.net/DTD/sodipodi-0.dtd"
   xmlns="http://www.w3.org/2000/svg"
   xmlns:svg="http://www.w3.org/2000/svg">
  <defs
     id="defs1" />
  <sodipodi:namedview
     id="namedview1"
     pagecolor="#ffffff"
     bordercolor="#000000"
     borderopacity="0.25"
     inkscape:showpageshadow="false"
     inkscape:pageopacity="0.0"
     inkscape:pagecheckerboard="true"
     inkscape:deskcolor="#d1d1d1"
     showgrid="false"
     borderlayer="false"
     showborder="true"
     inkscape:antialias-rendering="false">
    <inkscape:page
       x="0"
       y="0"
       width="1376"
       height="768"
       id="page2"
       margin="0"
       bleed="0" />
  </sodipodi:namedview>
  <g
     inkscape:groupmode="layer"
     inkscape:label="Image"
     id="g1">
    <path
       style="fill:#ffffff;fill-opacity:1;stroke:#000000;stroke-width:0;stroke-dasharray:none;stroke-opacity:1"
       d="M 72.2,459.8 C 70.356814,457.95681 70.734541,442.74863 72.943886,429.84937 83.543606,367.96294 131.23698,319.51914 195,305.8728 c 13.93165,-2.98161 43.39168,-3.26305 58,-0.5541 54.71412,10.14613 101.30128,50.26269 118.4951,102.03703 4.27874,12.88424 6.37239,23.18995 7.61699,37.49376 C 380.2566,458.0029 379.31418,461 374.03365,461 c -4.30902,0 -6.03284,-3.13276 -6.03767,-10.97251 -0.0154,-24.92855 -11.58775,-56.92542 -28.69196,-79.33132 C 325.79989,353.00625 304.833,336.20793 285.23618,327.37793 274.11105,322.36513 252.78364,316 247.11255,316 c -0.53446,0 0.23406,2.1375 1.70785,4.75 2.24573,3.98089 2.6796,5.96438 2.6796,12.25 0,11.38298 -4.36274,18.79588 -14,23.78796 -6.75912,3.5012 -17.98879,3.74646 -24.05291,0.52532 -13.47393,-7.1571 -18.92493,-23.22973 -12.24497,-36.10506 1.48617,-2.86452 2.25469,-5.20822 1.70784,-5.20822 -3.09533,0 -17.27631,3.5385 -24.74423,6.17428 -24.16023,8.52731 -48.18791,24.99435 -63.09714,43.24278 -19.809675,24.24641 -30.917592,52.3168 -32.776416,82.82802 -0.397889,6.53105 -1.088524,10.40841 -2.019829,11.33972 C 78.54431,461.31283 73.838291,461.43829 72.2,459.8 Z M 236.62893,349.41261 c 6.20797,-5.02452 7.73606,-7.78098 8.18019,-14.75579 0.46482,-7.29995 -1.67708,-12.68504 -6.73987,-16.94509 -16.14367,-13.58401 -40.02012,4.6326 -31.17921,23.78827 3.70621,8.03027 9.92267,11.64855 19.30359,11.23563 5.7219,-0.25186 7.23682,-0.73427 10.4353,-3.32302 z m -50.29795,108.00753 c -1.25054,-3.25885 0.52469,-35.97631 2.59194,-47.76957 3.60761,-20.58068 8.50166,-31.35154 18.21269,-40.08259 15.47903,-13.91698 36.60488,-7.56484 46.9531,14.11791 6.16954,12.9271 10.29187,39.35044 9.72167,62.31411 l -0.31038,12.5 -38.27682,0.26191 c -34.35379,0.23506 -38.33988,0.0975 -38.8922,-1.34177 z M 257.61106,438.75 c -1.74129,-36.12619 -8.70119,-58.20593 -20.91665,-66.35644 -5.70734,-3.8081 -14.6129,-4.49612 -20.34503,-1.5718 -14.50212,7.39843 -21.65032,28.14674 -23.91941,69.42824 L 191.72915,453 h 33.28438 33.28438 z M 564,410.47629 V 366 h 9.5 9.5 v 2.56809 2.5681 l 2.82077,-2.00857 c 6.596,-4.69676 18.87549,-5.14299 26.79761,-0.97381 5.77582,3.03964 10.96978,8.49258 13.56255,14.23879 1.90954,4.23202 2.30576,6.82134 2.31179,15.1074 0.007,8.95159 -0.28817,10.60166 -2.81081,15.73885 -4.97409,10.12939 -14.18651,15.87632 -25.73526,16.05428 -5.25486,0.081 -7.74241,-0.43218 -11.77903,-2.42988 l -5.11731,-2.53253 -0.27515,14.99643 -0.27516,14.99643 -9.25,0.3145 -9.25,0.3145 z m 41.73333,-2.74296 c 2.85969,-2.85968 3.63356,-4.49619 4.01797,-8.49684 0.91556,-9.52846 -4.76201,-16.22901 -13.7513,-16.22901 -8.4588,0 -14,5.82855 -14,14.726 0,12.68905 14.80582,18.92737 23.73333,9.99985 z m 33.66395,45.85941 C 639.16669,452.99173 639.09547,433.15 639.23901,409.5 l 0.26099,-43 9.25,-0.28753 c 8.7342,-0.27149 9.25,-0.1739 9.25,1.75 0,2.56499 1.00087,2.55958 5.38836,-0.0291 8.65606,-5.1072 21.85237,-3.1188 30.4192,4.58352 5.9238,5.326 9.02542,11.19688 10.14055,19.19444 2.16713,15.54243 -4.22932,29.1151 -16.44811,34.90136 -7.06954,3.34781 -18.24309,3.3583 -24.83052,0.0233 L 658,424.27202 l -4e-4,15.11399 -4e-4,15.11399 -9.09133,0.0927 c -5.73439,0.0585 -9.24614,-0.31075 -9.51059,-1 z m 36.88484,-42.96386 c 5.40784,-2.30425 7.99692,-5.94856 8.49524,-11.95762 C 685.57504,389.0522 680.30463,383 671.13043,383 c -4.23043,0 -5.63856,0.50725 -8.58169,3.09135 -12.29992,10.79947 -1.07854,30.84881 13.73338,24.53753 z M 751,454.40053 c 0,-0.0991 2.925,-6.54534 6.5,-14.32491 3.575,-7.77957 6.49218,-14.91664 6.48262,-15.86015 -0.01,-0.94351 -5.14602,-14.42797 -11.41434,-29.96547 L 741.17133,366 h 10.38543 10.38542 l 6.13055,19.06502 c 3.37181,10.48577 6.25662,18.92327 6.4107,18.75 0.15407,-0.17326 3.08178,-8.75252 6.506,-19.06502 L 787.21529,366 h 9.89236 c 5.44079,0 9.89235,0.41012 9.89235,0.91139 0,0.50126 -1.61256,4.66376 -3.58346,9.25 -4.34074,10.1008 -20.96235,50.13735 -27.12603,65.33861 -2.4531,6.05 -4.79284,11.34833 -5.19943,11.77408 C 770.48746,453.90615 751,454.99876 751,454.40053 Z m 499,-0.74219 c 0,-0.76055 3.1531,-8.05494 8.1058,-18.75182 l 4.9048,-10.59348 -10.0991,-24.90652 c -5.5545,-13.69859 -10.3344,-25.69402 -10.6219,-26.65652 -0.2876,-0.9625 -0.8134,-1.75 -1.1685,-1.75 -0.3551,0 -2.8901,2.92414 -5.6334,6.49808 -3.9825,5.18852 -5.3908,6.37483 -6.9877,5.88648 -5.1552,-1.57647 -9.607,-1.54448 -12.0968,0.0869 -4.6319,3.03493 -5.4032,6.81727 -5.4032,26.4964 V 428 h -9.5 -9.5 v -31 -31 h 9.5 c 9.481,0 9.5,0.005 9.5,2.51419 v 2.51419 l 4.177,-2.76419 c 3.6385,-2.40788 5.1531,-2.76419 11.75,-2.76419 6.3923,0 8.0976,0.37418 10.938,2.39997 3.3491,2.38866 3.3617,2.38967 2.6712,0.21415 -0.6865,-2.1629 -0.5859,-2.18283 9.5847,-1.89997 l 10.2784,0.28585 5.9862,18.26418 c 3.2924,10.04531 6.2578,17.92031 6.5898,17.5 0.332,-0.4203 3.2766,-8.75168 6.5435,-18.51418 l 5.9399,-17.75 h 10.2186 10.2186 l -5.533,13.25 c -3.0432,7.2875 -8.6075,20.675 -12.3652,29.75 -3.7576,9.075 -9.4936,22.8 -12.7465,30.5 l -5.9144,14 -9.6684,0.28621 c -5.3176,0.15742 -9.6684,0.0999 -9.6684,-0.12787 z m -151.3495,-24.65742 c -6.0571,-1.07864 -14.5009,-5.14829 -17.661,-8.51209 l -2.3999,-2.5546 5.2094,-5.20938 c 4.531,-4.53101 5.4367,-5.04482 6.9552,-3.94574 6.449,4.66777 15.8073,6.59629 20.3115,4.18571 4.7053,-2.5182 1.0216,-6.16711 -9.5045,-9.41477 -13.7217,-4.23362 -18.5785,-9.26233 -18.5447,-19.20118 0.022,-6.54154 3.2404,-11.99476 9.2838,-15.73108 6.0924,-3.76665 17.3005,-4.74787 25.8485,-2.26292 5.4231,1.57654 13.8512,6.79826 13.8512,8.58165 0,0.50819 -2.2019,3.31787 -4.8931,6.24373 -4.6863,5.09486 -4.9732,5.24738 -6.7866,3.60789 -4.8705,-4.40327 -13.182,-5.97414 -17.0978,-3.23144 -4.3981,3.08056 -1.9389,5.48915 9.0432,8.85714 13.8569,4.24964 18.7343,9.20124 18.7343,19.01941 0,8.40661 -3.7232,14.11107 -11.5,17.61935 -4.9183,2.21875 -14.3707,3.10205 -20.8495,1.94832 z m -662.02651,-1.58666 c -5.94486,-1.88765 -11.06126,-5.08218 -15.36474,-9.59328 l -3.24074,-3.3971 6.29291,-6.23698 6.29291,-6.23697 2.44784,2.65738 c 4.12603,4.47924 11.56967,7.37382 18.94783,7.36818 3.575,-0.003 7.6114,-0.56735 8.96977,-1.25469 5.47973,-2.77278 6.38727,-9.44697 1.85832,-13.66633 -2.00374,-1.86677 -9.62447,-5.29104 -21.25413,-9.55025 C 434.69011,384.9831 426.54951,376.88728 424.97845,371 c -2.36566,-8.86492 0.38005,-20.28492 6.17718,-25.69222 4.27719,-3.98957 13.36717,-7.42592 21.21299,-8.0193 11.58112,-0.87588 21.49596,2.14167 29.16691,8.87686 l 3.59113,3.15305 -6.23386,6.28977 -6.23386,6.28977 -3.68553,-2.91899 C 464.02777,355.06192 460.91055,354 454.35798,354 c -4.80111,0 -5.9019,0.39008 -8.53699,3.02517 -2.44853,2.44852 -2.89555,3.54456 -2.34517,5.75 1.12036,4.48939 3.2214,5.93891 15.57255,10.74365 20.50346,7.97607 25.9656,14.05692 25.94186,28.8804 -0.0174,10.86131 -5.46411,19.21572 -15.49023,23.75955 -6.5339,2.96116 -25.25297,3.67602 -32.87601,1.25549 z m 75.12951,0.0688 c -6.15264,-2.25968 -10.50642,-6.30103 -13.72322,-12.73841 L 495,408.68056 v -21.37781 -21.3778 l 9.25,0.28752 9.25,0.28753 0.5,20.84049 c 0.48972,20.41192 0.54855,20.87976 2.86078,22.75 2.60294,2.10538 8.14439,2.51229 11.28962,0.82902 4.02027,-2.15158 4.8496,-6.67053 4.8496,-26.42492 v -18.56964 l 9.25,0.28752 9.25,0.28753 v 21 c 0,20.99982 -2e-5,21.00005 -2.81356,26.72959 -3.23785,6.59361 -8.14504,11.0572 -14.55857,13.24251 -5.49046,1.87078 -17.29476,1.87659 -22.37437,0.011 z M 714.92869,420.75 c -0.0392,-3.9875 -0.18617,-24.6875 -0.32656,-46 l -0.25526,-38.75 9.57657,8e-5 9.57656,9e-5 0.006,45.99991 L 733.512,428 H 724.25567 715 Z M 841,383.63889 v -44.36111 l 6.25,-0.6064 c 5.63713,-0.54693 6.44612,-0.38546 8.25,1.64661 1.1,1.23915 8.3,12.23571 16,24.43681 7.7,12.2011 14.22601,22.19763 14.50225,22.21451 0.45771,0.028 5.37188,-7.61696 13.66529,-21.25896 1.74215,-2.86569 6.46715,-10.16035 10.5,-16.21035 l 7.33246,-11 6.75,-0.29569 6.75,-0.29569 V 382.95431 428 h -9.48283 -9.48283 l -0.26717,-25.12749 -0.26717,-25.12748 -9.13607,14.87748 -9.13607,14.87749 -6.27835,0.7074 c -3.4531,0.38907 -6.62116,0.49553 -7.04014,0.23659 -0.41898,-0.25895 -4.46502,-6.42728 -8.9912,-13.7074 -4.52618,-7.28013 -8.83438,-13.89552 -9.57379,-14.70088 C 860.21531,378.80594 860,382.52949 860,403.28571 V 428 H 850.5 841 Z M 946,397 v -31 h 9.5 9.5 v 31 31 h -9.5 -9.5 z m 33,0 v -31 h 9.5 c 9.39326,0 9.5,0.0273 9.5,2.4296 v 2.42961 l 4.4709,-2.49886 c 9.0773,-5.07337 20.5195,-4.06571 27.746,2.44346 7.5366,6.78846 8.2256,9.58467 8.6112,34.94619 l 0.3382,22.25 h -9.5237 -9.5237 l -0.3095,-19.42996 c -0.2853,-17.91663 -0.4731,-19.64896 -2.4112,-22.24176 -4.3166,-5.77489 -13.0393,-5.46843 -17.1301,0.60184 C 998.10986,390.13275 998,391.20887 998,409.14788 V 428 h -9.5 -9.5 z m 72,0 v -31 h 9.5 9.5 v 31 31 h -9.5 -9.5 z m 99.2692,8.26024 0.2308,-22.73977 -6.75,0.28627 -6.75,0.28626 V 374.5465 366 h 7.0085 7.0084 l -0.6566,-12.5 -0.6566,-12.5 h 9.6481 9.6482 v 12.5 12.5 h 7 7 v 8.5 8.5 h -6.9301 -6.9301 l 0.1801,22.49979 0.1801,22.4998 -9.7308,2e-4 -9.7308,2.1e-4 z M 951.11007,356.60449 c -5.774,-3.20028 -6.92081,-11.9476 -2.18699,-16.68141 2.36236,-2.36237 3.78398,-2.92308 7.4111,-2.92308 3.78394,0 4.89418,0.48268 7.07693,3.07673 7.52464,8.94253 -2.26202,22.09196 -12.30104,16.52776 z m 105.10253,-0.0721 c -4.5255,-2.01991 -6.834,-7.51496 -5.3033,-12.62393 1.3629,-4.54898 4.7782,-6.90845 9.9998,-6.90845 5.677,0 9.1366,3.22542 9.8032,9.13974 0.4523,4.01289 0.1643,4.95949 -2.3484,7.71948 -3.412,3.74778 -7.6533,4.68081 -12.1513,2.67316 z"
       id="path1" />
  </g>
</svg>
