<?xml version="1.0" encoding="UTF-8" standalone="no"?>
<!-- Generator: Adobe Illustrator 23.0.5, SVG Export Plug-In . SVG Version: 6.00 Build 0)  -->

<svg
   width="500"
   height="120"
   version="1.1"
   viewBox="0 0 500 119.99999"
   xml:space="preserve"
   id="svg46"
   sodipodi:docname="Supply_Min_ logo_nophrase_0326.svg"
   inkscape:version="1.4 (e7c3feb1, 2024-10-09)"
   inkscape:export-filename="Supply_Min_ logo_0326.png"
   inkscape:export-xdpi="96"
   inkscape:export-ydpi="96"
   xmlns:inkscape="http://www.inkscape.org/namespaces/inkscape"
   xmlns:sodipodi="http://sodipodi.sourceforge.net/DTD/sodipodi-0.dtd"
   xmlns="http://www.w3.org/2000/svg"
   xmlns:svg="http://www.w3.org/2000/svg"><sodipodi:namedview
   id="namedview46"
   pagecolor="#ffffff"
   bordercolor="#000000"
   borderopacity="0.25"
   inkscape:showpageshadow="2"
   inkscape:pageopacity="0.0"
   inkscape:pagecheckerboard="0"
   inkscape:deskcolor="#d1d1d1"
   inkscape:zoom="1.2917945"
   inkscape:cx="267.45741"
   inkscape:cy="181.53043"
   inkscape:window-width="1440"
   inkscape:window-height="792"
   inkscape:window-x="0"
   inkscape:window-y="25"
   inkscape:window-maximized="0"
   inkscape:current-layer="g46" /><defs
   id="defs5"><rect
     x="14.01546"
     y="45.410091"
     width="43.728233"
     height="113.80553"
     id="rect34" /><linearGradient
     id="swatch11"
     inkscape:swatch="solid"><stop
       style="stop-color:#000000;stop-opacity:0;"
       offset="0"
       id="stop11" /></linearGradient><linearGradient
     id="swatch9"
     inkscape:swatch="solid"><stop
       style="stop-color:#000000;stop-opacity:0;"
       offset="0"
       id="stop10" /></linearGradient><linearGradient
     id="swatch8"
     inkscape:swatch="solid"><stop
       style="stop-color:#1a0000;stop-opacity:1;"
       offset="0"
       id="stop9" /></linearGradient><linearGradient
     id="swatch4"
     inkscape:swatch="solid"><stop
       style="stop-color:#000000;stop-opacity:1;"
       offset="0"
       id="stop4" /></linearGradient><linearGradient
     id="swatch3"
     inkscape:swatch="solid"><stop
       style="stop-color:#000000;stop-opacity:0;"
       offset="0"
       id="stop3" /></linearGradient><linearGradient
     id="swatch2"
     inkscape:swatch="solid"><stop
       style="stop-color:#000000;stop-opacity:0.05882353;"
       offset="0"
       id="stop2" /></linearGradient><filter
     id="filter1"
     color-interpolation-filters="sRGB"
     x="0"
     y="0"
     width="1"
     height="1"><feColorMatrix
       result="fbSourceGraphic"
       type="saturate"
       values="1"
       id="feColorMatrix1" /><feColorMatrix
       in="fbSourceGraphic"
       result="fbSourceGraphicAlpha"
       values="0 0 0 -1 0 0 0 0 -1 0 0 0 0 -1 0 0 0 0 1 0"
       id="feColorMatrix2" /><feColorMatrix
       in="fbSourceGraphic"
       result="fbSourceGraphic"
       type="saturate"
       values="1"
       id="feColorMatrix3" /><feColorMatrix
       in="fbSourceGraphic"
       result="fbSourceGraphicAlpha"
       values="0 0 0 -1 0 0 0 0 -1 0 0 0 0 -1 0 0 0 0 1 0"
       id="feColorMatrix4" /><feColorMatrix
       in="fbSourceGraphic"
       type="saturate"
       values="1"
       id="feColorMatrix5" /></filter></defs>
<style
   type="text/css"
   id="style5">
	.st0{fill:#5E45FF;}
</style>
<g
   transform="matrix(0.01497,0,0,0.01497,90.83,16.78)"
   id="g46">
	
	
<g
   transform="matrix(17.289546,0,0,17.339059,-8412.0579,-6982.6115)"
   id="g45">
		<g
   transform="matrix(0.3941,0,0,0.3941,132.35478,342.18823)"
   id="g44">
			<path
   class="st0"
   d="m 320.5,343.1 c -3.8,-3.6 -10.2,-0.9 -10.2,4.4 v 17.1 c -37.3,7.4 -71.7,25 -100.2,51.5 -32,29.6 -53.9,67.7 -63.6,110.2 -0.9,3.8 1.5,7.5 5.3,8.4 0.5,0.1 1,0.2 1.6,0.2 3.2,0 6.1,-2.2 6.8,-5.4 17.3,-76.2 76.5,-134.7 150.2,-150.5 v 18.8 c 0,5.3 6.3,8 10.2,4.4 l 27.3,-25.9 c 2,-1.9 2,-5.2 0,-7.1 z"
   id="path41" />
			<path
   class="st0"
   d="M 586.2,527 H 565.6 C 557.9,489.5 539.7,453.5 513.5,424.5 482.8,390.4 443.9,368.1 400.8,360 c -3.8,-0.7 -7.5,1.8 -8.2,5.6 -0.7,3.8 1.8,7.5 5.6,8.2 75.1,14.2 136.2,76.1 153,153.2 h -17.3 c -5.3,0 -8,6.3 -4.4,10.2 l 25.9,26.3 c 1.9,2 5.2,2 7.1,0 l 27.9,-26.3 c 3.8,-3.9 1.1,-10.2 -4.2,-10.2 z"
   id="path42" />
			<path
   class="st0"
   d="M 321.6,772.9 C 234,757 172.7,687 158.5,623.2 l 20.5,-0.4 c 5.3,-0.1 7.9,-6.5 4.1,-10.3 l -27.5,-26.7 c -2,-2 -5.2,-1.9 -7.1,0.1 l -25.3,27.8 c -3.6,3.9 -0.7,10.2 4.6,10.1 l 16.4,-0.3 c 6.8,34.3 25.3,68.4 53.1,97.3 32.9,34.2 76.1,57.6 121.7,65.9 0.4,0.1 0.8,0.1 1.3,0.1 3.3,0 6.3,-2.4 6.9,-5.7 0.7,-3.8 -1.8,-7.5 -5.6,-8.2 z"
   id="path43" />
			<path
   class="st0"
   d="m 564,609.8 c -3.8,-0.8 -7.5,1.6 -8.3,5.4 C 539.9,691 478.7,754.9 410,769.8 V 751 c 0,-5.6 -6.7,-8.5 -10.8,-4.6 l -28.9,27.5 c -2.1,2 -2.1,5.5 0,7.5 l 28.9,27.5 c 4.1,3.9 10.8,1 10.8,-4.6 v -20.2 c 35.2,-7 69.7,-26.1 98.2,-54.6 30.9,-31 52.6,-70.5 61.1,-111.3 0.9,-3.9 -1.5,-7.6 -5.3,-8.4 z"
   id="path44" />
		</g>
		<path
   class="st0"
   d="m 272.95478,517.08823 -44.7,25.97 v 51.12 l 43.91,25.58 47.1,-27.16 v -49.19 z m 40.79,70.91 -37.6,-21.64 v -41.15 l 37.6,21.4 z m -39.89,-16.55 35.55,20.42 -16.71,9.617 -35.32,-20.3 z m -3.271,-46.63 v 42.13 l -36.81,21.76 v -42.49 z m -33.27,68.23 14.58,-8.632 35.28,20.26 -14.98,8.632 z"
   stroke-width="0.3941"
   id="path45" />
	</g><text
   xml:space="preserve"
   style="font-style:normal;font-variant:normal;font-weight:normal;font-stretch:normal;font-size:3206.41px;font-family:'Noto Sans Old Italic';-inkscape-font-specification:'Noto Sans Old Italic, ';text-align:start;writing-mode:lr-tb;direction:ltr;text-anchor:start;fill:#000000;fill-opacity:1;stroke:none;stroke-width:153.641;stroke-linecap:round;stroke-miterlimit:0.9;stroke-dasharray:none;stroke-opacity:1;paint-order:stroke fill markers"
   x="-1684.8679"
   y="4033.9314"
   id="text33"><tspan
     sodipodi:role="line"
     id="tspan33"
     style="font-style:normal;font-variant:normal;font-weight:bold;font-stretch:normal;font-size:3206.41px;font-family:Arial;-inkscape-font-specification:Arial;stroke-width:153.641"
     x="-1684.8679"
     y="4033.9314">SUPPLY MINISTRY</tspan></text><text
   xml:space="preserve"
   transform="matrix(66.800267,0,0,66.800267,-6067.4683,-1120.9085)"
   id="text34"
   style="font-style:normal;font-variant:normal;font-weight:normal;font-stretch:normal;font-size:26.6667px;font-family:'Noto Sans Old Italic';-inkscape-font-specification:'Noto Sans Old Italic, ';text-align:start;writing-mode:lr-tb;direction:ltr;white-space:pre;shape-inside:url(#rect34);display:inline;fill:#000000;fill-opacity:1;stroke:none;stroke-width:2.3;stroke-linecap:round;stroke-miterlimit:0.9;stroke-dasharray:none;stroke-opacity:1;paint-order:stroke fill markers" /></g>
</svg>
