<?xml version="1.0" encoding="UTF-8" standalone="no"?>
<!-- Generator: Adobe Illustrator 23.0.5, SVG Export Plug-In . SVG Version: 6.00 Build 0)  -->

<svg
   version="1.1"
   id="Layer_1"
   x="0px"
   y="0px"
   viewBox="0 0 2500 1234.5"
   style="enable-background:new 0 0 2500 1234.5;"
   xml:space="preserve"
   sodipodi:docname="Supply_Ministry_horizontal.svg"
   inkscape:version="1.4 (e7c3feb1, 2024-10-09)"
   inkscape:export-filename="Supply_Ministry_horizontal_whitebg.png"
   inkscape:export-xdpi="117.03524"
   inkscape:export-ydpi="117.03524"
   xmlns:inkscape="http://www.inkscape.org/namespaces/inkscape"
   xmlns:sodipodi="http://sodipodi.sourceforge.net/DTD/sodipodi-0.dtd"
   xmlns="http://www.w3.org/2000/svg"
   xmlns:svg="http://www.w3.org/2000/svg"><defs
   id="defs43"><filter
     inkscape:label="Fast Crop"
     inkscape:auto-region="false"
     inkscape:menu="Fill and Transparency"
     inkscape:menu-tooltip="Does not filter but adds a filter region"
     style="color-interpolation-filters:sRGB;"
     id="filter1"><feColorMatrix
       type="saturate"
       values="1"
       id="feColorMatrix1"
       result="fbSourceGraphic" /><feColorMatrix
       result="fbSourceGraphicAlpha"
       in="fbSourceGraphic"
       values="0 0 0 -1 0 0 0 0 -1 0 0 0 0 -1 0 0 0 0 1 0"
       id="feColorMatrix2" /><feColorMatrix
       id="feColorMatrix3"
       type="saturate"
       values="1"
       in="fbSourceGraphic"
       result="fbSourceGraphic" /><feColorMatrix
       result="fbSourceGraphicAlpha"
       in="fbSourceGraphic"
       values="0 0 0 -1 0 0 0 0 -1 0 0 0 0 -1 0 0 0 0 1 0"
       id="feColorMatrix4" /><feColorMatrix
       id="feColorMatrix5"
       type="saturate"
       values="1"
       in="fbSourceGraphic" /></filter></defs><sodipodi:namedview
   id="namedview43"
   pagecolor="#ffffff"
   bordercolor="#000000"
   borderopacity="0.25"
   inkscape:showpageshadow="2"
   inkscape:pageopacity="0.0"
   inkscape:pagecheckerboard="false"
   inkscape:deskcolor="#d1d1d1"
   inkscape:zoom="0.083772704"
   inkscape:cx="83.559437"
   inkscape:cy="1533.9125"
   inkscape:window-width="1440"
   inkscape:window-height="678"
   inkscape:window-x="0"
   inkscape:window-y="25"
   inkscape:window-maximized="0"
   inkscape:current-layer="Layer_1"
   inkscape:export-bgcolor="#00000000"
   showgrid="true"
   showborder="false"><inkscape:grid
     id="grid44"
     units="px"
     originx="0"
     originy="0"
     spacingx="1"
     spacingy="1"
     empcolor="#0099e5"
     empopacity="0.30196078"
     color="#0099e5"
     opacity="0.14902"
     empspacing="5"
     enabled="true"
     visible="true" /></sodipodi:namedview>
<style
   type="text/css"
   id="style1">
	.st0{fill:#5E45FF;}
</style>
<g
   id="g43"
   transform="matrix(2.5,0,0,2.5,-2239.6819,840.51878)">
	
	<g
   id="g42"
   transform="matrix(0.77678363,0,0,0.80667615,605.77237,-143.86107)"
   style="filter:url(#filter1)">
		<g
   id="g31"
   transform="matrix(1.0669786,0,0,1.1150344,-126.45509,30.839628)">
			<path
   d="m 232.29935,1115.4656 c -1.84718,3.9001 -4.51525,6.7728 -7.90166,8.8255 -3.38642,1.9496 -7.28595,2.9759 -11.69855,2.9759 -4.72045,0 -8.92783,-1.1286 -12.62212,-3.2836 -3.6943,-2.2582 -6.56758,-5.3364 -8.61997,-9.441 -2.05239,-4.1045 -3.07858,-8.8255 -3.07858,-14.1619 0,-5.4386 1.02619,-10.1586 3.07858,-14.1609 2.05239,-4.0023 4.92567,-7.1837 8.61997,-9.3388 3.69429,-2.2572 7.90167,-3.2836 12.62212,-3.2836 4.4126,0 8.31213,0.9242 11.69855,2.8737 3.07856,1.7441 5.54139,4.4123 7.38856,7.7991 l 13.54569,-10.0574 c -2.36025,-3.1804 -5.33617,-6.054 -8.72262,-8.3113 -6.77282,-4.6177 -14.7771,-6.9782 -23.8076,-6.9782 -7.69641,0 -14.77708,1.744 -21.03684,5.3364 -6.25976,3.4881 -11.18541,8.4146 -14.77711,14.7764 -3.59171,6.3628 -5.43881,13.4432 -5.43881,21.4478 0,8.0037 1.8471,15.0851 5.43881,21.4469 3.5917,6.2596 8.51735,11.1861 14.77711,14.6752 6.25976,3.4885 13.23782,5.3354 21.03684,5.3354 9.13313,0 17.13736,-2.3595 23.91021,-6.875 4.00217,-2.7705 7.28595,-6.1573 9.85142,-10.1596 z"
   id="path6"
   style="stroke-width:1.02619" />
			<path
   d="m 328.24801,1078.8314 c -3.6943,-6.3628 -8.72261,-11.2883 -14.98236,-14.7774 -6.36239,-3.5923 -13.34045,-5.3364 -20.93427,-5.3364 -7.59378,0 -14.57189,1.7441 -20.93424,5.3364 -6.36237,3.5914 -11.39072,8.5168 -15.08499,14.7774 -3.69426,6.3618 -5.54142,13.4423 -5.54142,21.3446 0,8.0037 1.84716,15.1874 5.54142,21.4469 3.69427,6.3628 8.72262,11.2883 15.08499,14.7774 6.36235,3.5913 13.34046,5.3364 20.93424,5.3364 7.59382,0 14.57188,-1.7451 20.93427,-5.3364 6.36235,-3.5918 11.3907,-8.5178 15.08497,-14.7774 3.69427,-6.2595 5.54141,-13.4432 5.54141,-21.4469 -0.10263,-7.9023 -1.94974,-14.9828 -5.64402,-21.3446 z m -14.36665,35.711 c -2.05238,4.1046 -5.02835,7.286 -8.72263,9.441 -3.69425,2.2573 -8.00425,3.2836 -12.92999,3.2836 -4.92567,0 -9.23568,-1.1286 -12.92996,-3.2836 -3.79689,-2.2582 -6.67023,-5.3364 -8.82522,-9.441 -2.05237,-4.1045 -3.18119,-8.9277 -3.18119,-14.2641 0,-5.4387 1.02619,-10.1597 3.18119,-14.2642 2.05237,-4.1046 5.02833,-7.1827 8.82522,-9.3377 3.7969,-2.155 8.10691,-3.2847 12.92996,-3.2847 4.92574,0 9.13312,1.1297 12.92999,3.2847 3.69428,2.155 6.67025,5.2331 8.72263,9.3377 2.05237,4.1045 3.18117,8.8255 3.18117,14.2642 0,5.3364 -1.02619,10.1596 -3.18117,14.2641 z"
   id="path7"
   style="stroke-width:1.02619" />
			<path
   d="m 400.90216,1059.744 v 55.8248 l -36.84017,-55.8248 h -16.31641 v 81.274 h 16.31641 v -55.7226 l 36.84017,55.7226 h 16.3164 v -81.274 z"
   id="path8"
   style="stroke-width:1.02619" />
			<path
   d="m 485.76799,1059.744 v 55.8248 L 448.9278,1059.744 h -16.3164 v 81.274 h 16.3164 v -55.7226 l 36.84019,55.7226 h 16.31637 v -81.274 z"
   id="path9"
   style="stroke-width:1.02619" />
			<path
   d="m 569.09453,1072.9818 v -13.2378 h -50.18064 v 81.274 h 50.18064 v -13.2378 h -33.86427 v -21.5501 h 30.3752 V 1093.3 h -30.3752 v -20.3182 z"
   id="path10"
   style="stroke-width:1.02619" />
			<path
   d="m 656.42318,1059.8462 v 13.1356 h 21.65259 v 68.0362 h 16.31639 v -68.0362 h 21.65258 v -13.1356 z"
   id="path11"
   style="stroke-width:1.02619" />
			<path
   d="m 957.60941,1059.744 h -18.9843 l -29.1438,81.274 h 17.1374 l 5.3359,-15.4954 h 32.3252 l 5.3362,15.4954 h 17.2399 z m -21.3448,52.7457 11.6989,-33.967 11.6985,33.967 z"
   id="path12"
   style="stroke-width:1.02619" />
			<path
   d="m 1042.7832,1108.0774 c 6.1571,-1.6418 10.7751,-4.6177 13.8534,-8.9278 3.0788,-4.31 4.618,-9.1332 4.618,-14.4696 0,-4.6178 -1.1289,-8.8255 -3.2839,-12.6224 -2.2574,-3.7968 -5.5413,-6.7727 -9.954,-8.9277 -4.4126,-2.2573 -9.7488,-3.2837 -16.0085,-3.2837 h -32.53019 v 81.1718 h 16.31639 v -31.6065 h 9.7489 l 17.9584,31.6065 h 18.8818 z m -11.3907,-10.8773 h -15.7006 v -23.8084 h 15.7006 c 4.4127,0 7.6963,1.0264 9.8513,3.0792 2.155,2.0518 3.284,4.9255 3.284,8.62 0,3.7969 -1.129,6.7728 -3.284,8.9278 -2.155,2.0518 -5.4386,3.1814 -9.8513,3.1814 z"
   id="path13"
   style="stroke-width:1.02619" />
			<path
   d="m 1128.0596,1072.9818 v -13.2378 h -52.2331 v 81.274 h 52.2331 v -13.2378 h -35.9167 v -21.5501 h 32.4275 V 1093.3 h -32.5301 v -20.3182 z"
   id="path14"
   style="stroke-width:1.02619" />
			<path
   d="m 1267.0056,1059.8462 -14.4695,62.6999 -15.598,-62.6999 h -18.1635 l -16.5217,63.0086 -14.2639,-63.0086 h -17.4453 l 21.8577,81.2741 19.0872,-0.1023 15.906,-57.7744 15.1875,57.7744 h 19.1898 l 22.6787,-81.1718 z"
   id="path15"
   style="stroke-width:1.02619" />
			<path
   d="m 1294.8152,1059.8462 v 81.1718 h 16.3163 v -81.1718 z"
   id="path16"
   style="stroke-width:1.02619" />
			<path
   d="m 1321.5987,1059.8462 v 13.1356 h 21.6524 v 68.0362 h 16.3168 v -68.0362 h 21.6523 v -13.1356 z"
   id="path17"
   style="stroke-width:1.02619" />
			<path
   d="m 1442.6891,1059.8462 v 33.3516 h -34.7878 v -33.3516 h -16.2137 v 81.1718 h 16.3161 v -34.5824 h 34.7879 v 34.5824 h 16.3165 v -81.1718 z"
   id="path18"
   style="stroke-width:1.02619" />
			<path
   d="m 1648.4398,1078.8314 c -3.6943,-6.3628 -8.7224,-11.2883 -14.9823,-14.7774 -6.3624,-3.5923 -13.3405,-5.3364 -21.0368,-5.3364 -7.594,0 -14.5719,1.7441 -20.9344,5.3364 -6.3624,3.5914 -11.3905,8.5168 -15.0849,14.7774 -3.6944,6.3618 -5.5414,13.4423 -5.5414,21.3446 0,8.0037 1.847,15.1874 5.5414,21.4469 3.6944,6.3628 8.7225,11.2883 15.0849,14.7774 6.3625,3.5913 13.3404,5.3364 20.9344,5.3364 7.5939,0 14.5719,-1.7451 20.9342,-5.3364 6.3625,-3.5918 11.3906,-8.5178 15.0849,-14.7774 3.6945,-6.2595 5.5415,-13.4432 5.5415,-21.4469 0,-7.9023 -1.847,-14.9828 -5.5415,-21.3446 z m -14.3664,35.711 c -2.0526,4.1046 -5.0285,7.286 -8.7227,9.441 -3.6942,2.2573 -8.0042,3.2836 -12.93,3.2836 -4.9259,0 -9.2359,-1.1286 -12.93,-3.2836 -3.7969,-2.2582 -6.6703,-5.3364 -8.8253,-9.441 -2.0525,-4.1045 -3.1812,-8.9277 -3.1812,-14.2641 0,-5.4387 1.0262,-10.1597 3.1812,-14.2642 2.0525,-4.1046 5.0284,-7.1827 8.8253,-9.3377 3.797,-2.155 8.1069,-3.2847 12.93,-3.2847 4.9258,0 9.2358,1.1297 12.93,3.2847 3.6942,2.155 6.6701,5.2331 8.7227,9.3377 2.0521,4.1045 3.1811,8.8255 3.1811,14.2642 -0.1028,5.3364 -1.129,10.1596 -3.1811,14.2641 z"
   id="path19"
   style="stroke-width:1.02619" />
			<path
   d="m 1683.0224,1128.088 v -68.2418 h -16.3163 v 81.1718 h 49.1545 v -12.93 z"
   id="path20"
   style="stroke-width:1.02619" />
			<path
   d="m 1773.9427,1059.8462 v 50.1807 c 0,5.5419 -1.4365,9.7487 -4.31,12.6224 -2.8733,2.8733 -6.9781,4.4123 -12.2114,4.4123 -5.2338,0 -9.2359,-1.4364 -12.1092,-4.4123 -2.8734,-2.8737 -4.31,-7.0805 -4.31,-12.6224 v -50.1807 h -16.3165 v 50.0785 c 0,6.875 1.4369,12.7246 4.3101,17.5478 2.8732,4.72 6.7728,8.3122 11.6987,10.7751 4.9254,2.3595 10.3643,3.5913 16.419,3.5913 6.157,0 11.6984,-1.2318 16.7268,-3.5913 5.0282,-2.3605 9.0303,-5.9519 12.0063,-10.7751 2.9759,-4.8232 4.5154,-10.5696 4.5154,-17.5478 v -50.0785 z"
   id="path21"
   style="stroke-width:1.02619" />
			<path
   d="m 1800.4183,1059.8462 v 13.1356 h 21.6526 v 68.0362 h 16.3167 v -68.0362 h 21.6524 v -13.1356 z"
   id="path22"
   style="stroke-width:1.02619" />
			<path
   d="m 1871.5332,1059.8462 v 81.1718 h 16.3165 v -81.1718 z"
   id="path23"
   style="stroke-width:1.02619" />
			<path
   d="m 1977.2307,1078.8314 c -3.6942,-6.3628 -8.7224,-11.2883 -14.9823,-14.7774 -6.3625,-3.5923 -13.3404,-5.3364 -20.9344,-5.3364 -7.5937,0 -14.5719,1.7441 -20.9342,5.3364 -6.3623,3.5914 -11.3906,8.5168 -15.0849,14.7774 -3.6943,6.3618 -5.5416,13.4423 -5.5416,21.3446 0,8.0037 1.8473,15.1874 5.5416,21.4469 3.6943,6.3628 8.7226,11.2883 15.0849,14.7774 6.3623,3.5913 13.3405,5.3364 20.9342,5.3364 7.594,0 14.5719,-1.7451 20.9344,-5.3364 6.3624,-3.5918 11.3908,-8.5178 15.0849,-14.7774 3.6944,-6.2595 5.5414,-13.4432 5.5414,-21.4469 -0.1025,-7.9023 -1.9496,-14.9828 -5.644,-21.3446 z m -14.3666,35.711 c -2.0523,4.1046 -5.0284,7.286 -8.7227,9.441 -3.6941,2.2573 -8.0042,3.2836 -12.9297,3.2836 -4.9259,0 -9.2359,-1.1286 -12.93,-3.2836 -3.7969,-2.2582 -6.6705,-5.3364 -8.7228,-9.441 -2.0523,-4.1045 -3.181,-8.9277 -3.181,-14.2641 0,-5.4387 1.026,-10.1597 3.181,-14.2642 2.0523,-4.1046 5.0283,-7.1827 8.7228,-9.3377 3.7968,-2.155 8.1069,-3.2847 12.93,-3.2847 4.8229,0 9.1328,1.1297 12.9297,3.2847 3.6943,2.155 6.5677,5.2331 8.7227,9.3377 2.0523,4.1045 3.1812,8.8255 3.1812,14.2642 0,5.3364 -1.0262,10.1596 -3.1812,14.2641 z"
   id="path24"
   style="stroke-width:1.02619" />
			<path
   d="m 2049.7823,1059.744 v 55.8248 l -36.8402,-55.8248 h -16.3164 v 81.274 h 16.3164 v -55.7226 l 36.8402,55.7226 h 16.3165 v -81.274 z"
   id="path25"
   style="stroke-width:1.02619" />
			<path
   d="m 638.6701,1115.4656 c -1.84712,3.9001 -4.51522,6.7728 -7.90164,8.8255 -3.38643,1.9496 -7.28593,2.9759 -11.69857,2.9759 -4.72046,0 -8.92782,-1.1286 -12.62209,-3.2836 -3.69429,-2.2582 -6.56764,-5.3364 -8.62002,-9.441 -2.05237,-4.1045 -3.07856,-8.8255 -3.07856,-14.1619 0,-5.4386 1.02619,-10.1586 3.07856,-14.1609 2.05238,-4.0023 4.92573,-7.1837 8.62002,-9.3388 3.69427,-2.2572 7.90163,-3.2836 12.62209,-3.2836 4.41264,0 8.31214,0.9242 11.69857,2.8737 3.07857,1.7441 5.54141,4.4123 7.38855,7.7991 l 13.5457,-10.0574 c -2.36023,-3.1804 -5.33617,-6.054 -8.7226,-8.3113 -6.77286,-4.6177 -14.77711,-6.9782 -23.80759,-6.9782 -7.69641,0 -14.7771,1.744 -21.03685,5.3364 -6.25975,3.4881 -11.18549,8.4146 -14.77715,14.7764 -3.59166,6.3628 -5.43876,13.4432 -5.43876,21.4478 0,8.0037 1.8471,15.0851 5.43876,21.4469 3.59166,6.2596 8.5174,11.1861 14.77715,14.6752 6.25975,3.4885 13.23781,5.3354 21.03685,5.3354 9.13309,0 17.13735,-2.3595 23.9102,-6.875 4.00214,-2.7705 7.28594,-6.1573 9.85141,-10.1596 z"
   id="path26"
   style="stroke-width:1.02619" />
			<path
   d="m 889.77852,1115.4656 c -1.84713,3.9001 -4.51523,6.7728 -7.90165,8.8255 -3.38643,1.9496 -7.28595,2.9759 -11.69856,2.9759 -4.72047,0 -8.92784,-1.1286 -12.62211,-3.2836 -3.6943,-2.2582 -6.56763,-5.3364 -8.62,-9.441 -2.05238,-4.1045 -3.07856,-8.8255 -3.07856,-14.1619 0,-5.4386 1.02618,-10.1586 3.07856,-14.1609 2.05237,-4.0023 4.9257,-7.1837 8.62,-9.3388 3.69427,-2.2572 7.90164,-3.2836 12.62211,-3.2836 4.41261,0 8.31213,0.9242 11.69856,2.8737 3.07856,1.7441 5.54143,4.4123 7.38855,7.7991 l 13.54549,-10.0574 c -2.36,-3.1804 -5.336,-6.054 -8.72245,-8.3113 -6.77279,-4.6177 -14.77706,-6.9782 -23.80752,-6.9782 -7.69642,0 -14.77713,1.744 -21.03688,5.3364 -6.25975,3.4881 -11.18546,8.4146 -14.77712,14.7764 -3.59165,6.3628 -5.43879,13.4432 -5.43879,21.4478 0,8.0037 1.84714,15.0851 5.43879,21.4469 3.59166,6.2596 8.51737,11.1861 14.77712,14.6752 6.25975,3.4885 13.23784,5.3354 21.03688,5.3354 9.13307,0 17.13736,-2.3595 23.91022,-6.875 4.00205,-2.7705 7.28585,-6.1573 9.85125,-10.1596 z"
   id="path27"
   style="stroke-width:1.02619" />
			<g
   id="g28"
   transform="matrix(1.0261887,0,0,1.0261887,-116.8101,-57.878388)">
				<path
   d="m 2153.3,1145.9 c 0.5,2.1 1.3,4 2.5,5.6 1.2,1.6 2.9,2.8 4.9,3.6 2,0.8 4.5,1.2 7.4,1.2 4.4,0 7.7,-1 9.9,-2.9 2.2,-2 3.3,-4.4 3.3,-7.3 0,-2.3 -0.7,-4.2 -2,-5.7 -1.4,-1.5 -3.3,-2.8 -5.7,-3.9 -2.5,-1.1 -5.3,-2.1 -8.6,-3.1 -3.1,-0.9 -6.1,-1.9 -9.1,-2.9 -2.9,-1.1 -5.6,-2.4 -8,-4 -2.4,-1.6 -4.3,-3.6 -5.7,-6.1 -1.4,-2.5 -2.1,-5.7 -2.1,-9.5 0,-4.9 1.2,-9 3.5,-12.4 2.3,-3.4 5.6,-5.9 9.8,-7.7 4.2,-1.8 9,-2.7 14.4,-2.7 4.6,0 8.8,0.7 12.5,2 3.7,1.3 6.8,3.2 9.4,5.8 2.6,2.5 4.4,5.7 5.6,9.5 l -14.2,3.7 c -0.4,-1.7 -1.2,-3.1 -2.4,-4.3 -1.2,-1.2 -2.8,-2.2 -4.7,-2.9 -1.9,-0.7 -3.9,-1.1 -5.9,-1.1 -2.3,-0.1 -4.4,0.3 -6.3,1 -1.9,0.8 -3.4,1.9 -4.5,3.3 -1.1,1.4 -1.6,3.1 -1.6,5 0,2.1 0.6,3.8 1.9,5 1.3,1.2 3,2.3 5.2,3.2 2.2,0.9 4.5,1.7 7,2.5 3.2,1 6.4,2 9.6,3.2 3.2,1.1 6.1,2.6 8.8,4.4 2.6,1.8 4.8,4 6.3,6.7 1.6,2.7 2.4,6.1 2.4,10.2 0,4.5 -1,8.5 -3.1,12 -2.1,3.6 -5.2,6.4 -9.3,8.5 -4.1,2.1 -9.3,3.2 -15.5,3.2 -5.2,0 -9.9,-0.8 -14.1,-2.3 -4.2,-1.5 -7.6,-3.8 -10.4,-6.6 -2.7,-2.9 -4.5,-6.3 -5.3,-10.3 z"
   id="path28" />
			</g>
			<g
   id="g29"
   transform="matrix(1.0261887,0,0,1.0261887,-116.8101,-57.878388)">
				<path
   d="m 1593.6,1145.9 c 0.5,2.1 1.3,4 2.5,5.6 1.2,1.6 2.9,2.8 4.9,3.6 2,0.8 4.5,1.2 7.4,1.2 4.4,0 7.7,-1 9.9,-2.9 2.2,-2 3.3,-4.4 3.3,-7.3 0,-2.3 -0.7,-4.2 -2,-5.7 -1.4,-1.5 -3.3,-2.8 -5.7,-3.9 -2.5,-1.1 -5.3,-2.1 -8.6,-3.1 -3.1,-0.9 -6.1,-1.9 -9.1,-2.9 -2.9,-1.1 -5.6,-2.4 -8,-4 -2.4,-1.6 -4.3,-3.6 -5.7,-6.1 -1.4,-2.5 -2.1,-5.7 -2.1,-9.5 0,-4.9 1.2,-9 3.5,-12.4 2.3,-3.4 5.6,-5.9 9.8,-7.7 4.2,-1.8 9,-2.7 14.4,-2.7 4.6,0 8.8,0.7 12.5,2 3.7,1.3 6.8,3.2 9.4,5.8 2.6,2.5 4.4,5.7 5.6,9.5 l -14.2,3.7 c -0.4,-1.7 -1.2,-3.1 -2.4,-4.3 -1.2,-1.2 -2.8,-2.2 -4.7,-2.9 -1.9,-0.7 -3.9,-1.1 -5.9,-1.1 -2.3,-0.1 -4.4,0.3 -6.3,1 -1.9,0.8 -3.4,1.9 -4.5,3.3 -1.1,1.4 -1.6,3.1 -1.6,5 0,2.1 0.6,3.8 1.9,5 1.3,1.2 3,2.3 5.2,3.2 2.2,0.9 4.5,1.7 7,2.5 3.2,1 6.4,2 9.6,3.2 3.2,1.1 6.1,2.6 8.8,4.4 2.6,1.8 4.8,4 6.3,6.7 1.6,2.7 2.4,6.1 2.4,10.2 0,4.5 -1,8.5 -3.1,12 -2.1,3.6 -5.2,6.4 -9.3,8.5 -4.1,2.1 -9.3,3.2 -15.5,3.2 -5.2,0 -9.9,-0.8 -14.1,-2.3 -4.2,-1.5 -7.6,-3.8 -10.4,-6.6 -2.7,-2.9 -4.5,-6.3 -5.3,-10.3 z"
   id="path29" />
			</g>
			<g
   id="g30"
   transform="matrix(1.0261887,0,0,1.0261887,-116.8101,-57.878388)">
				<path
   d="m 832.4,1145.9 c 0.5,2.1 1.3,4 2.5,5.6 1.2,1.6 2.9,2.8 4.9,3.6 2,0.8 4.5,1.2 7.4,1.2 4.4,0 7.7,-1 9.9,-2.9 2.2,-2 3.3,-4.4 3.3,-7.3 0,-2.3 -0.7,-4.2 -2,-5.7 -1.4,-1.5 -3.3,-2.8 -5.7,-3.9 -2.5,-1.1 -5.3,-2.1 -8.6,-3.1 -3.1,-0.9 -6.1,-1.9 -9.1,-2.9 -2.9,-1.1 -5.6,-2.4 -8,-4 -2.4,-1.6 -4.3,-3.6 -5.7,-6.1 -1.4,-2.5 -2.1,-5.7 -2.1,-9.5 0,-4.9 1.2,-9 3.5,-12.4 2.3,-3.4 5.6,-5.9 9.8,-7.7 4.2,-1.8 9,-2.7 14.4,-2.7 4.6,0 8.8,0.7 12.5,2 3.7,1.3 6.8,3.2 9.4,5.8 2.6,2.5 4.4,5.7 5.6,9.5 l -14.2,3.7 c -0.4,-1.7 -1.2,-3.1 -2.4,-4.3 -1.2,-1.2 -2.8,-2.2 -4.7,-2.9 -1.9,-0.7 -3.9,-1.1 -5.9,-1.1 -2.3,-0.1 -4.4,0.3 -6.3,1 -1.9,0.8 -3.4,1.9 -4.5,3.3 -1.1,1.4 -1.6,3.1 -1.6,5 0,2.1 0.6,3.8 1.9,5 1.3,1.2 3,2.3 5.2,3.2 2.2,0.9 4.5,1.7 7,2.5 3.2,1 6.4,2 9.6,3.2 3.2,1.1 6.1,2.6 8.8,4.4 2.6,1.8 4.8,4 6.3,6.7 1.6,2.7 2.4,6.1 2.4,10.2 0,4.5 -1,8.5 -3.1,12 -2.1,3.6 -5.2,6.4 -9.3,8.5 -4.1,2.1 -9.3,3.2 -15.5,3.2 -5.2,0 -9.9,-0.8 -14.1,-2.3 -4.2,-1.5 -7.6,-3.8 -10.4,-6.6 -2.7,-2.9 -4.5,-6.3 -5.3,-10.3 z"
   id="path30" />
			</g>
		</g>
		<g
   id="g41"
   transform="matrix(1.3027854,0,0,1.3614607,-822.57151,-238.20275)">
			<path
   d="m 389.30689,766.29703 c 0,16.47259 -4.04653,29.05723 -11.93212,37.34467 -7.88555,8.28744 -18.98759,12.48225 -32.89109,12.48225 -14.21476,0 -24.90182,-4.09253 -31.74977,-12.07301 -6.95178,-8.08284 -10.47955,-20.05359 -10.47955,-35.60531 v -97.81219 h -37.87143 v 101.90475 c 0,16.47255 3.00898,30.38731 8.92312,41.43716 5.91418,11.04995 14.52604,19.64435 25.42058,25.27156 10.89456,5.72959 23.8642,8.59439 38.49402,8.59439 11.41331,0 21.78907,-2.04627 31.12725,-5.93416 8.5081,-3.68334 15.77111,-8.79907 21.58154,-15.44944 l 2.49019,18.92805 h 34.34373 V 670.53112 h -37.45647 z"
   id="path31"
   sodipodi:nodetypes="csscsccsscsccccccc"
   style="stroke-width:1.03034" />
			<path
   d="m 603.77357,679.33012 c -12.03585,-7.4689 -26.04313,-11.25456 -41.60678,-11.25456 -14.42228,0 -26.76939,2.8648 -36.83385,8.38976 -8.92317,4.91108 -16.18616,10.94762 -21.68533,17.80266 l 0.62259,-23.73686 h -35.38137 v 244.01893 h 35.07004 v -91.46871 c 4.98038,5.9342 11.30959,11.04988 18.98766,15.44937 10.79077,6.13884 23.9679,9.31059 39.22026,9.31059 15.97868,0 30.19345,-3.78557 42.22931,-11.25452 12.03589,-7.46895 21.58155,-18.00728 28.22206,-31.51268 6.74421,-13.40319 10.06443,-29.26185 10.06443,-47.1668 0,-18.00727 -3.52774,-33.96828 -10.47951,-47.26906 -6.84796,-13.30084 -16.39364,-23.8392 -28.42951,-31.30812 z m 1.1413,78.67948 c 0,17.39338 -4.6691,31.61506 -13.90347,42.15338 -9.23444,10.53833 -21.37401,15.85868 -36.21134,15.85868 -9.54571,0 -18.26131,-2.35325 -25.7319,-6.95732 -7.47051,-4.60416 -13.69597,-11.25459 -18.15753,-19.84892 -4.56531,-8.5944 -6.84795,-19.13275 -6.84795,-31.30812 0,-12.48232 2.28264,-23.12296 6.84795,-31.71734 4.56535,-8.5944 10.68702,-15.14248 18.15753,-19.6443 7.47059,-4.50182 16.18619,-6.75274 25.7319,-6.75274 14.83733,0 26.9769,5.32034 36.21134,15.85866 9.23437,10.743 13.90347,24.96465 13.90347,42.35802 z"
   id="path32"
   sodipodi:nodetypes="ssccccccccsscscssssscsssscs"
   style="stroke-width:1.03034" />
			<path
   d="m 809.21332,679.33012 c -12.03587,-7.4689 -26.04313,-11.25456 -41.60673,-11.25456 -14.4223,0 -26.76941,2.8648 -36.83392,8.38976 -8.92314,4.91108 -16.18613,10.94762 -21.68531,17.80266 l 0.62255,-23.73686 h -35.38128 v 244.01893 h 35.17376 v -91.46871 c 4.98038,5.9342 11.30958,11.04988 18.98762,15.44937 10.79077,6.13884 23.96797,9.31059 39.22033,9.31059 15.97865,0 30.1934,-3.78557 42.22929,-11.25452 12.03585,-7.46895 21.58153,-18.00728 28.22202,-31.51268 6.74424,-13.40319 10.06447,-29.26185 10.06447,-47.1668 0,-18.00727 -3.52774,-33.96828 -10.47949,-47.26906 -6.848,-13.30084 -16.49743,-23.8392 -28.53331,-31.30812 z m 1.24507,78.67948 c 0,17.39338 -4.66907,31.61506 -13.90345,42.15338 -9.23443,10.53833 -21.37407,15.85868 -36.21138,15.85868 -9.54569,0 -18.26132,-2.35325 -25.73184,-6.95732 -7.47054,-4.60416 -13.696,-11.25459 -18.15757,-19.84892 -4.56533,-8.5944 -6.848,-19.13275 -6.848,-31.30812 0,-12.48232 2.28267,-23.12296 6.848,-31.71734 4.56534,-8.5944 10.68703,-15.14248 18.15757,-19.6443 7.47052,-4.50182 16.18615,-6.75274 25.73184,-6.75274 14.83731,0 26.97695,5.32034 36.21138,15.85866 9.23438,10.743 13.90345,24.96465 13.90345,42.35802 z"
   id="path33"
   sodipodi:nodetypes="ssccccccccsscscssssscsssscs"
   style="stroke-width:1.03034" />
			<rect
   x="883.08856"
   y="604.74329"
   width="35.070015"
   height="240.74487"
   id="rect33"
   style="stroke-width:1.03034" />
			<polygon
   points="991.2,836.8 937.9,710.3 896.5,710.3 971.9,874.8 935.7,948.8 976.3,948.8 1085.2,710.3 1044.9,710.3 "
   id="polygon33"
   transform="matrix(1.0375746,0,0,1.0231401,12.252306,-56.205361)" />
			<polygon
   points="1451.8,647.7 1363.2,838 1271.5,648.3 1271.2,647.7 1231,647.7 1231,881.2 1269,881.2 1269,727.7 1343,880.7 1343.2,881.2 1380.8,881.2 1453,727.8 1453,881.2 1490.6,881.2 1490.6,647.7 "
   id="polygon34"
   transform="matrix(1.0375746,0,0,1.0231401,-77.167861,-56.205361)" />
			<rect
   x="1514.5754"
   y="670.53082"
   width="37.456444"
   height="174.85468"
   id="rect34"
   style="stroke-width:1.03034" />
			<rect
   x="1515.7439"
   y="608.68225"
   width="37.456444"
   height="31.81966"
   id="rect35"
   style="stroke-width:1.03034" />
			<rect
   x="1796.6919"
   y="670.53082"
   width="37.456444"
   height="174.85468"
   id="rect36"
   style="stroke-width:1.03034" />
			<rect
   x="1797.8606"
   y="606.48285"
   width="37.456444"
   height="31.81966"
   id="rect37"
   style="stroke-width:1.03034"
   inkscape:transform-center-x="2.3809524"
   inkscape:transform-center-y="21.428571" />
			<path
   d="m 1723.1278,676.66996 c -10.8945,-5.7296 -23.9679,-8.5944 -38.7017,-8.5944 -11.5168,0 -22.1002,2.04632 -31.6459,5.93426 -8.6118,3.58098 -15.8749,8.59435 -21.789,14.83552 l -0.2075,-18.41652 h -36.8339 v 174.85464 h 37.8714 v -95.25435 c 0,-16.47255 4.0466,-29.05717 11.9322,-37.54923 7.8857,-8.38977 19.1953,-12.58464 33.5136,-12.58464 13.7999,0 24.4868,4.09258 31.7499,12.27768 7.2627,8.18514 10.9982,20.3605 10.9982,36.11685 v 97.09598 h 37.8715 V 744.0949 c 0,-16.67718 -3.0091,-30.79652 -9.0271,-41.94874 -6.2253,-11.15222 -14.8372,-19.74661 -25.7317,-25.4762 z"
   id="path37"
   style="stroke-width:1.03034" />
			<path
   d="m 2075.3846,789.72694 v -89.1155 h 43.7854 v -29.05717 h -43.7854 v -44.30199 l -35.3813,4.09256 v 40.20943 h -27.2885 v 29.05717 h 27.2885 v 99.1423 c 0,29.46643 17.7421,45.83668 43.6814,45.83668 25.9395,0 36.5228,-4.70644 36.5228,-4.70644 l -0.2076,-32.74052 c -24.4868,12.48236 -44.6153,1.73936 -44.6153,-18.41652 z"
   id="path38"
   style="stroke-width:1.03034" />
			<path
   d="m 2233.1993,670.22416 c -8.5076,1.63706 -16.4974,4.50186 -23.7604,8.5944 -6.4329,3.68329 -12.3473,8.0828 -17.4308,13.40312 l -0.2077,-21.58824 h -37.768 v 174.85467 h 38.8054 v -90.54792 c 0,-10.12909 1.9713,-18.9281 5.7067,-26.19239 3.8387,-7.16199 8.923,-13.09622 15.1485,-17.39336 6.2258,-4.39954 13.3851,-7.26433 21.2704,-8.5944 7.8855,-1.33007 16.186,-1.12544 24.5907,0.7162 l 1.2447,0.30695 v -32.84283 l -0.8298,-0.20459 c -9.2347,-2.04629 -18.2616,-2.14859 -26.7697,-0.51161 z"
   id="path39"
   style="stroke-width:1.03034" />
			<polygon
   points="2311.7,710.3 2270.3,710.3 2345.7,874.8 2309.4,948.8 2350.1,948.8 2458.3,711.7 2459,710.3 2418.7,710.3 2365,836.8 "
   id="polygon39"
   transform="matrix(1.0375746,0,0,1.0231401,-77.167861,-56.205361)" />
			
			<path
   d="m 1940.1884,739.08151 c -29.156,-10.12909 -31.5423,-17.18875 -31.5423,-23.53221 0,-3.37638 1.1413,-19.95125 22.8266,-19.95125 23.7604,0 32.6837,20.56512 32.9949,21.38365 l 1.4525,3.58099 29.8825,-14.83555 -1.2454,-3.06943 c -2.3863,-5.9342 -16.6012,-35.29835 -57.8966,-37.03767 -36.9377,-1.53472 -62.0468,17.29108 -63.9146,48.08761 -2.0752,34.37749 29.3635,47.16674 59.038,56.57964 30.2972,9.51521 30.2972,19.23503 30.2972,23.42989 0,2.25092 -0.7265,21.89524 -27.7033,21.89524 -31.3348,0 -36.7299,-22.20218 -36.9377,-23.12296 l -1.0373,-4.60416 -33.4102,16.88184 1.7641,3.17173 c 13.7995,25.06691 36.4187,37.85616 67.1309,37.85616 32.6838,0 65.6783,-17.49569 65.6783,-50.95239 0.1038,-35.8099 -31.7496,-46.85981 -57.3776,-55.76113 z"
   id="path41"
   style="stroke-width:1.03034" />
		<path
   d="m 154.71129,706.2387 c -41.19172,-14.22164 -47.83223,-25.37384 -47.83223,-37.95848 0,-12.58462 7.36684,-33.04746 37.24898,-33.04746 37.45642,0 51.25619,33.25208 51.25619,33.25208 l 32.89111,-16.26796 c -6.95175,-16.98412 -29.15585,-46.96212 -76.98805,-49.00844 -44.30441,-1.84164 -81.864628,18.6212 -84.666058,62.92319 -2.6978,43.38112 35.900038,60.77453 79.478188,74.5869 43.57813,13.81241 46.17207,28.75025 46.17207,37.75389 0,9.10592 -5.29162,35.91219 -44.09693,35.91219 -49.077228,0 -57.066578,-36.62839 -57.066578,-36.62839 l -36.41888,18.41652 c 18.26135,33.04743 48.143498,50.64541 90.061468,50.64541 41.91802,0 87.36378,-21.69057 87.36378,-66.70873 0.10377,-45.01816 -36.21134,-59.64906 -77.40306,-73.87072 z"
   id="path40"
   sodipodi:nodetypes="sssccccsssccscs"
   style="stroke-width:1.03034" /></g>
	</g>
<g
   id="g5"
   transform="matrix(1.5633727,0,0,1.6248295,-146.88543,-132.57768)">
		<g
   id="g4"
   transform="matrix(0.39414333,0,0,0.39414333,183.2182,357.05365)">
			<path
   class="st0"
   d="m 320.48141,343.06727 c -3.8,-3.6 -10.2,-0.9 -10.2,4.4 v 17.1 c -37.3,7.4 -71.7,25 -100.2,51.5 -32,29.6 -53.9,67.7 -63.6,110.2 -0.9,3.8 1.5,7.5 5.3,8.4 0.5,0.1 1,0.2 1.6,0.2 3.2,0 6.1,-2.2 6.8,-5.4 17.3,-76.2 76.5,-134.7 150.2,-150.5 v 18.8 c 0,5.3 6.3,8 10.2,4.4 l 27.3,-25.9 c 2,-1.9 2,-5.2 0,-7.1 z"
   id="path1"
   sodipodi:nodetypes="csccccsccscccc" />
			<path
   class="st0"
   d="m 586.18141,526.96727 h -20.6 c -7.7,-37.5 -25.9,-73.5 -52.1,-102.5 -30.7,-34.1 -69.6,-56.4 -112.7,-64.5 -3.8,-0.7 -7.5,1.8 -8.2,5.6 -0.7,3.8 1.8,7.5 5.6,8.2 75.1,14.2 136.2,76.1 153,153.2 h -17.3 c -5.3,0 -8,6.3 -4.4,10.2 l 25.9,26.3 c 1.9,2 5.2,2 7.1,0 l 27.9,-26.3 c 3.8,-3.9 1.1,-10.2 -4.2,-10.2 z"
   id="path2"
   sodipodi:nodetypes="scccsccsccccs" />
			<path
   class="st0"
   d="m 321.58141,772.86727 c -87.6,-15.9 -148.9,-85.9 -163.1,-149.7 l 20.5,-0.4 c 5.3,-0.1 7.9,-6.5 4.1,-10.3 l -27.5,-26.7 c -2,-2 -5.2,-1.9 -7.1,0.1 l -25.3,27.8 c -3.6,3.9 -0.7,10.2 4.6,10.1 l 16.4,-0.3 c 6.8,34.3 25.3,68.4 53.1,97.3 32.9,34.2 76.1,57.6 121.7,65.9 0.4,0.1 0.8,0.1 1.3,0.1 3.3,0 6.3,-2.4 6.9,-5.7 0.7,-3.8 -1.8,-7.5 -5.6,-8.2 z"
   id="path3"
   sodipodi:nodetypes="cccccccccccscc" />
			<path
   class="st0"
   d="m 563.98141,609.76727 c -3.8,-0.8 -7.5,1.6 -8.3,5.4 -15.8,75.8 -77,139.7 -145.7,154.6 v -18.8 c 0,-5.6 -6.7,-8.5 -10.8,-4.6 l -28.9,27.5 c -2.1,2 -2.1,5.5 0,7.5 l 28.9,27.5 c 4.1,3.9 10.8,1 10.8,-4.6 v -20.2 c 35.2,-7 69.7,-26.1 98.2,-54.6 30.9,-31 52.6,-70.5 61.1,-111.3 0.9,-3.9 -1.5,-7.6 -5.3,-8.4 z"
   id="path4"
   sodipodi:nodetypes="sccsccccscccs" />
		</g>
		<path
   class="st0"
   d="m 323.76246,532.00102 -44.69599,25.97413 v 51.12029 l 43.90758,25.57991 47.10006,-27.15651 v -49.18905 z m 40.79374,70.90631 -37.60128,-21.63836 v -41.14862 l 37.60128,21.40193 z m -39.88735,-16.55398 35.55181,20.41666 -16.71177,9.61703 -35.31514,-20.2982 z m -3.27139,-46.62722 v 42.1339 l -36.81287,21.75681 v -42.48881 z m -33.26572,68.22624 14.58342,-8.63174 35.27585,20.25913 -14.97743,8.63173 z"
   id="path5"
   sodipodi:nodetypes="ccccccccccccccccccccccccccc"
   style="stroke-width:0.394132" />
	</g></g>
</svg>
