<?xml version="1.0" encoding="UTF-8"?>
<!-- Generator: Adobe Illustrator 23.0.5, SVG Export Plug-In . SVG Version: 6.00 Build 0)  -->
<svg width="262.1" height="35.03" version="1.1" viewBox="0 0 262.1 35.03" xml:space="preserve" xmlns="http://www.w3.org/2000/svg">
<style type="text/css">
	.st0{fill:#5E45FF;}
</style>
<g transform="translate(21.04 -36.76)"><g stroke-width=".1042">
	
	<path d="m38.39 53.96c0 1.736-0.3929 3.062-1.158 3.935-0.7656 0.8732-1.844 1.315-3.193 1.315-1.38 0-2.418-0.4312-3.083-1.272-0.675-0.8517-1.017-2.113-1.017-3.752v-10.31h-3.677v10.74c0 1.736 0.2921 3.202 0.8663 4.366 0.5742 1.164 1.41 2.07 2.468 2.663 1.058 0.6037 2.317 0.9056 3.737 0.9056 1.108 0 2.116-0.2156 3.022-0.6253 0.8261-0.3881 1.531-0.9271 2.095-1.628l0.2418 1.994h3.334v-18.42h-3.637z"/><path d="m59.22 44.79c-1.169-0.787-2.529-1.186-4.04-1.186-1.4 0-2.599 0.3019-3.576 0.884-0.8664 0.5175-1.572 1.154-2.105 1.876l0.06044-2.501h-3.435v25.71h3.405v-9.638c0.4835 0.6253 1.098 1.164 1.844 1.628 1.048 0.6468 2.327 0.981 3.808 0.981 1.551 0 2.931-0.3989 4.1-1.186 1.169-0.787 2.095-1.897 2.74-3.32 0.6548-1.412 0.9772-3.083 0.9772-4.97 0-1.897-0.3425-3.579-1.017-4.981-0.6649-1.401-1.592-2.512-2.76-3.299zm0.1108 8.29c0 1.833-0.4533 3.331-1.35 4.442-0.8966 1.11-2.075 1.671-3.516 1.671-0.9268 0-1.773-0.248-2.498-0.7331-0.7253-0.4851-1.33-1.186-1.763-2.091-0.4432-0.9056-0.6649-2.016-0.6649-3.299 0-1.315 0.2216-2.436 0.6649-3.342 0.4433-0.9056 1.038-1.596 1.763-2.07 0.7253-0.4743 1.572-0.7115 2.498-0.7115 1.441 0 2.619 0.5606 3.516 1.671 0.8966 1.132 1.35 2.63 1.35 4.463z"/><path d="m79.16 44.79c-1.169-0.787-2.529-1.186-4.04-1.186-1.4 0-2.599 0.3019-3.576 0.884-0.8664 0.5175-1.572 1.154-2.105 1.876l0.06044-2.501h-3.435v25.71h3.415v-9.638c0.4835 0.6253 1.098 1.164 1.844 1.628 1.048 0.6468 2.327 0.981 3.808 0.981 1.551 0 2.931-0.3989 4.1-1.186 1.169-0.787 2.095-1.897 2.74-3.32 0.6548-1.412 0.9772-3.083 0.9772-4.97 0-1.897-0.3425-3.579-1.017-4.981-0.6649-1.401-1.602-2.512-2.77-3.299zm0.1209 8.29c0 1.833-0.4533 3.331-1.35 4.442-0.8966 1.11-2.075 1.671-3.516 1.671-0.9268 0-1.773-0.248-2.498-0.7331-0.7253-0.4851-1.33-1.186-1.763-2.091-0.4432-0.9056-0.6649-2.016-0.6649-3.299 0-1.315 0.2216-2.436 0.6649-3.342 0.4432-0.9056 1.038-1.596 1.763-2.07 0.7253-0.4743 1.572-0.7115 2.498-0.7115 1.441 0 2.619 0.5606 3.516 1.671 0.8966 1.132 1.35 2.63 1.35 4.463z"/><path d="m86.34 36.93h3.405v25.37h-3.405z"/></g><path d="m99.69 60.83-3.647 7.978h4.09l10.97-25.71h-4.06l-5.41 13.64-5.369-13.64h-4.171z" stroke-width=".1042"/><path d="m117.3 64.5h3.828v-16.55l7.455 16.49 0.0202 0.0539h3.788l7.273-16.54v16.54h3.788v-25.17h-3.909l-8.925 20.52-9.238-20.45-0.0302-0.06468h-4.05z" stroke-width=".1042"/><g stroke-width=".1042"><path d="m147.9 46.08h3.637v18.42h-3.637z"/><path d="m147.9 39.56h3.637v3.353h-3.637z"/><path d="m175.1 46.08h3.637v18.42h-3.637z"/><path d="m175.1 39.54h3.637v3.353h-3.637z"/><path d="m168.1 46.72c-1.058-0.6037-2.327-0.9056-3.758-0.9056-1.118 0-2.146 0.2156-3.072 0.6253-0.8361 0.3773-1.541 0.9056-2.116 1.563l-0.0202-1.941h-3.576v18.42h3.677v-10.04c0-1.736 0.3929-3.062 1.158-3.956 0.7656-0.884 1.864-1.326 3.254-1.326 1.34 0 2.377 0.4312 3.083 1.294 0.7051 0.8625 1.068 2.145 1.068 3.806v10.23h3.677v-10.67c0-1.757-0.2922-3.245-0.8764-4.42-0.6044-1.175-1.441-2.081-2.498-2.684z"/><path d="m202.3 58.64v-9.39h4.251v-3.062h-4.251v-4.668l-3.435 0.4312v4.237h-2.649v3.062h2.649v10.45c0 3.105 1.723 4.83 4.241 4.83 2.518 0 3.546-0.4959 3.546-0.4959l-0.0202-3.45c-2.377 1.315-4.332 0.1833-4.332-1.941z"/><path d="m217.6 46.04c-0.826 0.1725-1.602 0.4743-2.307 0.9056-0.6246 0.3881-1.199 0.8517-1.692 1.412l-0.0202-2.275h-3.667v18.42h3.768v-9.541c0-1.067 0.1914-1.994 0.5541-2.76 0.3727-0.7546 0.8663-1.38 1.471-1.833 0.6045-0.4636 1.3-0.7654 2.065-0.9056 0.7656-0.1401 1.572-0.1186 2.388 0.07547l0.1208 0.03235v-3.461l-0.0805-0.02156c-0.8966-0.2156-1.773-0.2264-2.599-0.0539z"/></g><path d="m231.6 59.71-5.369-13.64h-4.171l7.596 17.73-3.657 7.978h4.1l10.9-25.56 0.0705-0.1509h-4.06z" stroke-width=".1042"/><path d="m189.2 52.53c-2.831-1.067-3.062-1.811-3.062-2.48 0-0.3558 0.1108-2.102 2.216-2.102 2.307 0 3.173 2.167 3.203 2.253l0.141 0.3773 2.901-1.563-0.1209-0.3234c-0.2317-0.6253-1.612-3.719-5.621-3.903-3.586-0.1617-6.024 1.822-6.205 5.067-0.2015 3.622 2.851 4.97 5.732 5.962 2.942 1.003 2.942 2.027 2.942 2.469 0 0.2372-0.0706 2.307-2.69 2.307-3.042 0-3.566-2.339-3.586-2.436l-0.1007-0.4851-3.244 1.779 0.1713 0.3342c1.34 2.641 3.536 3.989 6.518 3.989 3.173 0 6.377-1.843 6.377-5.369 0.01-3.773-3.083-4.938-5.571-5.875z" stroke-width=".1042"/><path d="m15.62 47.63c-3.999-1.498-4.644-2.674-4.644-4 0-1.326 0.7152-3.482 3.617-3.482 3.637 0 4.976 3.504 4.976 3.504l3.193-1.714c-0.6749-1.79-2.831-4.948-7.475-5.164-4.302-0.194-7.948 1.962-8.22 6.63-0.2619 4.571 3.486 6.404 7.717 7.859 4.231 1.455 4.483 3.029 4.483 3.978 0 0.9595-0.5138 3.784-4.281 3.784-4.765 0-5.541-3.859-5.541-3.859l-3.536 1.941c1.773 3.482 4.674 5.336 8.744 5.336 4.07 0 8.482-2.285 8.482-7.029 0.01008-4.743-3.516-6.285-7.515-7.784z" stroke-width=".1042"/><g stroke-width=".05198">
<path class="st0" d="m-10.14 38.81c-0.1938-0.1908-0.5201-0.04769-0.5201 0.2332v0.9062c-1.902 0.3922-3.656 1.325-5.109 2.729-1.632 1.569-2.748 3.588-3.243 5.84-0.04589 0.2014 0.07649 0.3975 0.2702 0.4452 0.02549 0.0053 0.05099 0.01056 0.08158 0.01056 0.1632 0 0.311-0.1166 0.3467-0.2862 0.8821-4.038 3.901-7.138 7.659-7.976v0.9963c0 0.2809 0.3212 0.424 0.5201 0.2332l1.392-1.373c0.102-0.1007 0.102-0.2756 0-0.3763z"/><path class="st0" d="m3.408 48.55h-1.05c-0.3926-1.987-1.321-3.895-2.657-5.432-1.565-1.807-3.549-2.989-5.747-3.418-0.1938-0.03709-0.3824 0.09539-0.4181 0.2968-0.03569 0.2014 0.09179 0.3975 0.2855 0.4346 3.829 0.7525 6.945 4.033 7.802 8.119h-0.8821c-0.2702 0-0.4079 0.3339-0.2244 0.5405l1.321 1.394c0.09689 0.106 0.2651 0.106 0.362 0l1.423-1.394c0.1938-0.2067 0.05609-0.5405-0.2142-0.5405z"/><path class="st0" d="m-10.08 61.58c-4.467-0.8426-7.592-4.552-8.317-7.933l1.045-0.0212c0.2702-0.0053 0.4028-0.3445 0.2091-0.5458l-1.402-1.415c-0.102-0.106-0.2652-0.1007-0.362 0.0053l-1.29 1.473c-0.1836 0.2067-0.03569 0.5405 0.2346 0.5352l0.8362-0.0159c0.3467 1.818 1.29 3.625 2.708 5.156 1.678 1.812 3.88 3.052 6.206 3.492 0.0204 0.0053 0.04079 0.0053 0.06629 0.0053 0.1683 0 0.3212-0.1272 0.3518-0.3021 0.03569-0.2014-0.09178-0.3975-0.2855-0.4346z"/><path class="st0" d="m2.276 52.94c-0.1938-0.0424-0.3824 0.08479-0.4232 0.2862-0.8056 4.017-3.926 7.403-7.429 8.193v-0.9963c0-0.2968-0.3416-0.4505-0.5507-0.2438l-1.474 1.457c-0.1071 0.106-0.1071 0.2915 0 0.3975l1.474 1.457c0.2091 0.2067 0.5507 0.05299 0.5507-0.2438v-1.07c1.795-0.371 3.554-1.383 5.007-2.894 1.576-1.643 2.682-3.736 3.116-5.898 0.04589-0.2067-0.07649-0.4028-0.2702-0.4452z"/></g><path class="st0" d="m-8.3 44.15-5.782 3.492v6.873l5.68 3.439 6.093-3.651v-6.614zm5.277 9.534-4.864-2.909v-5.533l4.864 2.878zm-5.16-2.226 4.599 2.745-2.162 1.293-4.569-2.729zm-0.4232-6.269v5.665l-4.762 2.925v-5.713zm-4.304 9.173 1.887-1.161 4.564 2.724-1.938 1.161z" stroke-width=".05198"/></g>
</svg>
