<?xml version="1.0" encoding="UTF-8"?>
<!-- Generator: Adobe Illustrator 23.0.5, SVG Export Plug-In . SVG Version: 6.00 Build 0)  -->
<svg width="219" height="52.04" version="1.1" viewBox="0 0 219 52.04" xml:space="preserve" xmlns="http://www.w3.org/2000/svg"><defs><filter id="filter1" color-interpolation-filters="sRGB"><feColorMatrix result="fbSourceGraphic" type="saturate" values="1"/><feColorMatrix in="fbSourceGraphic" result="fbSourceGraphicAlpha" values="0 0 0 -1 0 0 0 0 -1 0 0 0 0 -1 0 0 0 0 1 0"/><feColorMatrix in="fbSourceGraphic" result="fbSourceGraphic" type="saturate" values="1"/><feColorMatrix in="fbSourceGraphic" result="fbSourceGraphicAlpha" values="0 0 0 -1 0 0 0 0 -1 0 0 0 0 -1 0 0 0 0 1 0"/><feColorMatrix in="fbSourceGraphic" type="saturate" values="1"/></filter></defs>
<style type="text/css">
	.st0{fill:#5E45FF;}
</style>
<g transform="matrix(.01497 0 0 .01497 90.83 16.78)">
	
	<g transform="matrix(3.884 0 0 4.033 -1957 -3188)" filter="url(#filter1)">
		<g transform="matrix(1.067 0 0 1.115 -126.5 30.84)"><g stroke-width="1.026">
			<path d="m232.3 1115c-1.847 3.9-4.515 6.773-7.902 8.826-3.386 1.95-7.286 2.976-11.7 2.976-4.72 0-8.928-1.129-12.62-3.284-3.694-2.258-6.568-5.336-8.62-9.441-2.052-4.104-3.079-8.826-3.079-14.16 0-5.439 1.026-10.16 3.079-14.16s4.926-7.184 8.62-9.339c3.694-2.257 7.902-3.284 12.62-3.284 4.413 0 8.312 0.9242 11.7 2.874 3.079 1.744 5.541 4.412 7.389 7.799l13.55-10.06c-2.36-3.18-5.336-6.054-8.723-8.311-6.773-4.618-14.78-6.978-23.81-6.978-7.696 0-14.78 1.744-21.04 5.336-6.26 3.488-11.19 8.415-14.78 14.78-3.592 6.363-5.439 13.44-5.439 21.45 0 8.004 1.847 15.09 5.439 21.45 3.592 6.26 8.517 11.19 14.78 14.68 6.26 3.488 13.24 5.335 21.04 5.335 9.133 0 17.14-2.36 23.91-6.875 4.002-2.77 7.286-6.157 9.851-10.16z"/>
			<path d="m328.2 1079c-3.694-6.363-8.723-11.29-14.98-14.78-6.362-3.592-13.34-5.336-20.93-5.336-7.594 0-14.57 1.744-20.93 5.336-6.362 3.591-11.39 8.517-15.08 14.78-3.694 6.362-5.541 13.44-5.541 21.34 0 8.004 1.847 15.19 5.541 21.45 3.694 6.363 8.723 11.29 15.08 14.78 6.362 3.591 13.34 5.336 20.93 5.336 7.594 0 14.57-1.745 20.93-5.336 6.362-3.592 11.39-8.518 15.08-14.78 3.694-6.26 5.541-13.44 5.541-21.45-0.1026-7.902-1.95-14.98-5.644-21.34zm-14.37 35.71c-2.052 4.105-5.028 7.286-8.723 9.441-3.694 2.257-8.004 3.284-12.93 3.284-4.926 0-9.236-1.129-12.93-3.284-3.797-2.258-6.67-5.336-8.825-9.441-2.052-4.104-3.181-8.928-3.181-14.26 0-5.439 1.026-10.16 3.181-14.26 2.052-4.105 5.028-7.183 8.825-9.338 3.797-2.155 8.107-3.285 12.93-3.285 4.926 0 9.133 1.13 12.93 3.285 3.694 2.155 6.67 5.233 8.723 9.338 2.052 4.104 3.181 8.826 3.181 14.26 0 5.336-1.026 10.16-3.181 14.26z"/>
			<path d="m400.9 1060v55.82l-36.84-55.82h-16.32v81.27h16.32v-55.72l36.84 55.72h16.32v-81.27z"/>
			<path d="m485.8 1060v55.82l-36.84-55.82h-16.32v81.27h16.32v-55.72l36.84 55.72h16.32v-81.27z"/>
			<path d="m569.1 1073v-13.24h-50.18v81.27h50.18v-13.24h-33.86v-21.55h30.38v-12.93h-30.38v-20.32z"/>
			<path d="m656.4 1060v13.14h21.65v68.04h16.32v-68.04h21.65v-13.14z"/>
			<path d="m957.6 1060h-18.98l-29.14 81.27h17.14l5.336-15.5h32.33l5.336 15.5h17.24zm-21.34 52.75 11.7-33.97 11.7 33.97z"/>
			<path d="m1043 1108c6.157-1.642 10.78-4.618 13.85-8.928 3.079-4.31 4.618-9.133 4.618-14.47 0-4.618-1.129-8.826-3.284-12.62-2.257-3.797-5.541-6.773-9.954-8.928-4.413-2.257-9.749-3.284-16.01-3.284h-32.53v81.17h16.32v-31.61h9.749l17.96 31.61h18.88zm-11.39-10.88h-15.7v-23.81h15.7c4.413 0 7.696 1.026 9.851 3.079 2.155 2.052 3.284 4.926 3.284 8.62 0 3.797-1.129 6.773-3.284 8.928-2.155 2.052-5.439 3.181-9.851 3.181z"/>
			<path d="m1128 1073v-13.24h-52.23v81.27h52.23v-13.24h-35.92v-21.55h32.43v-12.93h-32.53v-20.32z"/>
			<path d="m1267 1060-14.47 62.7-15.6-62.7h-18.16l-16.52 63.01-14.26-63.01h-17.45l21.86 81.27 19.09-0.1023 15.91-57.77 15.19 57.77h19.19l22.68-81.17z"/>
			<path d="m1295 1060v81.17h16.32v-81.17z"/>
			<path d="m1322 1060v13.14h21.65v68.04h16.32v-68.04h21.65v-13.14z"/>
			<path d="m1443 1060v33.35h-34.79v-33.35h-16.21v81.17h16.32v-34.58h34.79v34.58h16.32v-81.17z"/>
			<path d="m1648 1079c-3.694-6.363-8.722-11.29-14.98-14.78-6.362-3.592-13.34-5.336-21.04-5.336-7.594 0-14.57 1.744-20.93 5.336-6.362 3.591-11.39 8.517-15.08 14.78-3.694 6.362-5.541 13.44-5.541 21.34 0 8.004 1.847 15.19 5.541 21.45 3.694 6.363 8.722 11.29 15.08 14.78 6.362 3.591 13.34 5.336 20.93 5.336 7.594 0 14.57-1.745 20.93-5.336 6.362-3.592 11.39-8.518 15.08-14.78 3.694-6.26 5.542-13.44 5.542-21.45 0-7.902-1.847-14.98-5.542-21.34zm-14.37 35.71c-2.053 4.105-5.028 7.286-8.723 9.441-3.694 2.257-8.004 3.284-12.93 3.284-4.926 0-9.236-1.129-12.93-3.284-3.797-2.258-6.67-5.336-8.825-9.441-2.052-4.104-3.181-8.928-3.181-14.26 0-5.439 1.026-10.16 3.181-14.26 2.052-4.105 5.028-7.183 8.825-9.338 3.797-2.155 8.107-3.285 12.93-3.285 4.926 0 9.236 1.13 12.93 3.285s6.67 5.233 8.723 9.338c2.052 4.104 3.181 8.826 3.181 14.26-0.1028 5.336-1.129 10.16-3.181 14.26z"/>
			<path d="m1683 1128v-68.24h-16.32v81.17h49.15v-12.93z"/>
			<path d="m1774 1060v50.18c0 5.542-1.436 9.749-4.31 12.62-2.873 2.873-6.978 4.412-12.21 4.412-5.234 0-9.236-1.436-12.11-4.412-2.873-2.874-4.31-7.08-4.31-12.62v-50.18h-16.32v50.08c0 6.875 1.437 12.72 4.31 17.55 2.873 4.72 6.773 8.312 11.7 10.78 4.925 2.36 10.36 3.591 16.42 3.591 6.157 0 11.7-1.232 16.73-3.591 5.028-2.36 9.03-5.952 12.01-10.78 2.976-4.823 4.515-10.57 4.515-17.55v-50.08z"/>
			<path d="m1800 1060v13.14h21.65v68.04h16.32v-68.04h21.65v-13.14z"/>
			<path d="m1872 1060v81.17h16.32v-81.17z"/>
			<path d="m1977 1079c-3.694-6.363-8.722-11.29-14.98-14.78-6.362-3.592-13.34-5.336-20.93-5.336-7.594 0-14.57 1.744-20.93 5.336-6.362 3.591-11.39 8.517-15.08 14.78-3.694 6.362-5.542 13.44-5.542 21.34 0 8.004 1.847 15.19 5.542 21.45 3.694 6.363 8.723 11.29 15.08 14.78 6.362 3.591 13.34 5.336 20.93 5.336 7.594 0 14.57-1.745 20.93-5.336 6.362-3.592 11.39-8.518 15.08-14.78 3.694-6.26 5.541-13.44 5.541-21.45-0.1025-7.902-1.95-14.98-5.644-21.34zm-14.37 35.71c-2.052 4.105-5.028 7.286-8.723 9.441-3.694 2.257-8.004 3.284-12.93 3.284-4.926 0-9.236-1.129-12.93-3.284-3.797-2.258-6.67-5.336-8.723-9.441-2.052-4.104-3.181-8.928-3.181-14.26 0-5.439 1.026-10.16 3.181-14.26 2.052-4.105 5.028-7.183 8.723-9.338 3.797-2.155 8.107-3.285 12.93-3.285 4.823 0 9.133 1.13 12.93 3.285 3.694 2.155 6.568 5.233 8.723 9.338 2.052 4.104 3.181 8.826 3.181 14.26 0 5.336-1.026 10.16-3.181 14.26z"/>
			<path d="m2050 1060v55.82l-36.84-55.82h-16.32v81.27h16.32v-55.72l36.84 55.72h16.32v-81.27z"/>
			<path d="m638.7 1115c-1.847 3.9-4.515 6.773-7.902 8.826-3.386 1.95-7.286 2.976-11.7 2.976-4.72 0-8.928-1.129-12.62-3.284-3.694-2.258-6.568-5.336-8.62-9.441-2.052-4.104-3.079-8.826-3.079-14.16 0-5.439 1.026-10.16 3.079-14.16 2.052-4.002 4.926-7.184 8.62-9.339 3.694-2.257 7.902-3.284 12.62-3.284 4.413 0 8.312 0.9242 11.7 2.874 3.079 1.744 5.541 4.412 7.389 7.799l13.55-10.06c-2.36-3.18-5.336-6.054-8.723-8.311-6.773-4.618-14.78-6.978-23.81-6.978-7.696 0-14.78 1.744-21.04 5.336-6.26 3.488-11.19 8.415-14.78 14.78-3.592 6.363-5.439 13.44-5.439 21.45 0 8.004 1.847 15.09 5.439 21.45 3.592 6.26 8.517 11.19 14.78 14.68 6.26 3.488 13.24 5.335 21.04 5.335 9.133 0 17.14-2.36 23.91-6.875 4.002-2.77 7.286-6.157 9.851-10.16z"/>
			<path d="m889.8 1115c-1.847 3.9-4.515 6.773-7.902 8.826-3.386 1.95-7.286 2.976-11.7 2.976-4.72 0-8.928-1.129-12.62-3.284-3.694-2.258-6.568-5.336-8.62-9.441-2.052-4.104-3.079-8.826-3.079-14.16 0-5.439 1.026-10.16 3.079-14.16 2.052-4.002 4.926-7.184 8.62-9.339 3.694-2.257 7.902-3.284 12.62-3.284 4.413 0 8.312 0.9242 11.7 2.874 3.079 1.744 5.541 4.412 7.389 7.799l13.55-10.06c-2.36-3.18-5.336-6.054-8.722-8.311-6.773-4.618-14.78-6.978-23.81-6.978-7.696 0-14.78 1.744-21.04 5.336-6.26 3.488-11.19 8.415-14.78 14.78-3.592 6.363-5.439 13.44-5.439 21.45 0 8.004 1.847 15.09 5.439 21.45 3.592 6.26 8.517 11.19 14.78 14.68 6.26 3.488 13.24 5.335 21.04 5.335 9.133 0 17.14-2.36 23.91-6.875 4.002-2.77 7.286-6.157 9.851-10.16z"/>
			</g><g transform="matrix(1.026 0 0 1.026 -116.8 -57.88)">
				<path d="m2153 1146c0.5 2.1 1.3 4 2.5 5.6s2.9 2.8 4.9 3.6 4.5 1.2 7.4 1.2c4.4 0 7.7-1 9.9-2.9 2.2-2 3.3-4.4 3.3-7.3 0-2.3-0.7-4.2-2-5.7-1.4-1.5-3.3-2.8-5.7-3.9-2.5-1.1-5.3-2.1-8.6-3.1-3.1-0.9-6.1-1.9-9.1-2.9-2.9-1.1-5.6-2.4-8-4s-4.3-3.6-5.7-6.1-2.1-5.7-2.1-9.5c0-4.9 1.2-9 3.5-12.4s5.6-5.9 9.8-7.7 9-2.7 14.4-2.7c4.6 0 8.8 0.7 12.5 2s6.8 3.2 9.4 5.8c2.6 2.5 4.4 5.7 5.6 9.5l-14.2 3.7c-0.4-1.7-1.2-3.1-2.4-4.3s-2.8-2.2-4.7-2.9-3.9-1.1-5.9-1.1c-2.3-0.1-4.4 0.3-6.3 1-1.9 0.8-3.4 1.9-4.5 3.3s-1.6 3.1-1.6 5c0 2.1 0.6 3.8 1.9 5s3 2.3 5.2 3.2 4.5 1.7 7 2.5c3.2 1 6.4 2 9.6 3.2 3.2 1.1 6.1 2.6 8.8 4.4 2.6 1.8 4.8 4 6.3 6.7 1.6 2.7 2.4 6.1 2.4 10.2 0 4.5-1 8.5-3.1 12-2.1 3.6-5.2 6.4-9.3 8.5s-9.3 3.2-15.5 3.2c-5.2 0-9.9-0.8-14.1-2.3s-7.6-3.8-10.4-6.6c-2.7-2.9-4.5-6.3-5.3-10.3z"/>
			
			
				<path d="m1594 1146c0.5 2.1 1.3 4 2.5 5.6s2.9 2.8 4.9 3.6 4.5 1.2 7.4 1.2c4.4 0 7.7-1 9.9-2.9 2.2-2 3.3-4.4 3.3-7.3 0-2.3-0.7-4.2-2-5.7-1.4-1.5-3.3-2.8-5.7-3.9-2.5-1.1-5.3-2.1-8.6-3.1-3.1-0.9-6.1-1.9-9.1-2.9-2.9-1.1-5.6-2.4-8-4s-4.3-3.6-5.7-6.1-2.1-5.7-2.1-9.5c0-4.9 1.2-9 3.5-12.4s5.6-5.9 9.8-7.7 9-2.7 14.4-2.7c4.6 0 8.8 0.7 12.5 2s6.8 3.2 9.4 5.8c2.6 2.5 4.4 5.7 5.6 9.5l-14.2 3.7c-0.4-1.7-1.2-3.1-2.4-4.3s-2.8-2.2-4.7-2.9-3.9-1.1-5.9-1.1c-2.3-0.1-4.4 0.3-6.3 1-1.9 0.8-3.4 1.9-4.5 3.3s-1.6 3.1-1.6 5c0 2.1 0.6 3.8 1.9 5s3 2.3 5.2 3.2 4.5 1.7 7 2.5c3.2 1 6.4 2 9.6 3.2 3.2 1.1 6.1 2.6 8.8 4.4 2.6 1.8 4.8 4 6.3 6.7 1.6 2.7 2.4 6.1 2.4 10.2 0 4.5-1 8.5-3.1 12-2.1 3.6-5.2 6.4-9.3 8.5s-9.3 3.2-15.5 3.2c-5.2 0-9.9-0.8-14.1-2.3s-7.6-3.8-10.4-6.6c-2.7-2.9-4.5-6.3-5.3-10.3z"/>
			
			
				<path d="m832.4 1146c0.5 2.1 1.3 4 2.5 5.6s2.9 2.8 4.9 3.6 4.5 1.2 7.4 1.2c4.4 0 7.7-1 9.9-2.9 2.2-2 3.3-4.4 3.3-7.3 0-2.3-0.7-4.2-2-5.7-1.4-1.5-3.3-2.8-5.7-3.9-2.5-1.1-5.3-2.1-8.6-3.1-3.1-0.9-6.1-1.9-9.1-2.9-2.9-1.1-5.6-2.4-8-4s-4.3-3.6-5.7-6.1-2.1-5.7-2.1-9.5c0-4.9 1.2-9 3.5-12.4s5.6-5.9 9.8-7.7 9-2.7 14.4-2.7c4.6 0 8.8 0.7 12.5 2s6.8 3.2 9.4 5.8c2.6 2.5 4.4 5.7 5.6 9.5l-14.2 3.7c-0.4-1.7-1.2-3.1-2.4-4.3s-2.8-2.2-4.7-2.9-3.9-1.1-5.9-1.1c-2.3-0.1-4.4 0.3-6.3 1-1.9 0.8-3.4 1.9-4.5 3.3s-1.6 3.1-1.6 5c0 2.1 0.6 3.8 1.9 5s3 2.3 5.2 3.2 4.5 1.7 7 2.5c3.2 1 6.4 2 9.6 3.2 3.2 1.1 6.1 2.6 8.8 4.4 2.6 1.8 4.8 4 6.3 6.7 1.6 2.7 2.4 6.1 2.4 10.2 0 4.5-1 8.5-3.1 12-2.1 3.6-5.2 6.4-9.3 8.5s-9.3 3.2-15.5 3.2c-5.2 0-9.9-0.8-14.1-2.3s-7.6-3.8-10.4-6.6c-2.7-2.9-4.5-6.3-5.3-10.3z"/>
			</g>
		</g>
		<g transform="matrix(1.303 0 0 1.361 -822.6 -238.2)"><g stroke-width="1.03">
			<path d="m389.3 766.3c0 16.47-4.047 29.06-11.93 37.34-7.886 8.287-18.99 12.48-32.89 12.48-14.21 0-24.9-4.093-31.75-12.07-6.952-8.083-10.48-20.05-10.48-35.61v-97.81h-37.87v101.9c0 16.47 3.009 30.39 8.923 41.44 5.914 11.05 14.53 19.64 25.42 25.27 10.89 5.73 23.86 8.594 38.49 8.594 11.41 0 21.79-2.046 31.13-5.934 8.508-3.683 15.77-8.799 21.58-15.45l2.49 18.93h34.34v-174.9h-37.46z"/>
			<path d="m603.8 679.3c-12.04-7.469-26.04-11.25-41.61-11.25-14.42 0-26.77 2.865-36.83 8.39-8.923 4.911-16.19 10.95-21.69 17.8l0.6226-23.74h-35.38v244h35.07v-91.47c4.98 5.934 11.31 11.05 18.99 15.45 10.79 6.139 23.97 9.311 39.22 9.311 15.98 0 30.19-3.786 42.23-11.25 12.04-7.469 21.58-18.01 28.22-31.51 6.744-13.4 10.06-29.26 10.06-47.17 0-18.01-3.528-33.97-10.48-47.27-6.848-13.3-16.39-23.84-28.43-31.31zm1.141 78.68c0 17.39-4.669 31.62-13.9 42.15-9.234 10.54-21.37 15.86-36.21 15.86-9.546 0-18.26-2.353-25.73-6.957-7.471-4.604-13.7-11.25-18.16-19.85-4.565-8.594-6.848-19.13-6.848-31.31 0-12.48 2.283-23.12 6.848-31.72 4.565-8.594 10.69-15.14 18.16-19.64 7.471-4.502 16.19-6.753 25.73-6.753 14.84 0 26.98 5.32 36.21 15.86 9.234 10.74 13.9 24.96 13.9 42.36z"/>
			<path d="m809.2 679.3c-12.04-7.469-26.04-11.25-41.61-11.25-14.42 0-26.77 2.865-36.83 8.39-8.923 4.911-16.19 10.95-21.69 17.8l0.6226-23.74h-35.38v244h35.17v-91.47c4.98 5.934 11.31 11.05 18.99 15.45 10.79 6.139 23.97 9.311 39.22 9.311 15.98 0 30.19-3.786 42.23-11.25 12.04-7.469 21.58-18.01 28.22-31.51 6.744-13.4 10.06-29.26 10.06-47.17 0-18.01-3.528-33.97-10.48-47.27-6.848-13.3-16.5-23.84-28.53-31.31zm1.245 78.68c0 17.39-4.669 31.62-13.9 42.15-9.234 10.54-21.37 15.86-36.21 15.86-9.546 0-18.26-2.353-25.73-6.957-7.471-4.604-13.7-11.25-18.16-19.85-4.565-8.594-6.848-19.13-6.848-31.31 0-12.48 2.283-23.12 6.848-31.72 4.565-8.594 10.69-15.14 18.16-19.64 7.471-4.502 16.19-6.753 25.73-6.753 14.84 0 26.98 5.32 36.21 15.86 9.234 10.74 13.9 24.96 13.9 42.36z"/>
			<rect x="883.1" y="604.7" width="35.07" height="240.7"/>
			</g><polygon transform="matrix(1.038 0 0 1.023 12.25 -56.21)" points="935.7 948.8 976.3 948.8 1085 710.3 1045 710.3 991.2 836.8 937.9 710.3 896.5 710.3 971.9 874.8"/>
			<polygon transform="matrix(1.038 0 0 1.023 -77.17 -56.21)" points="1343 881.2 1381 881.2 1453 727.8 1453 881.2 1491 881.2 1491 647.7 1452 647.7 1363 838 1272 648.3 1271 647.7 1231 647.7 1231 881.2 1269 881.2 1269 727.7 1343 880.7"/><g stroke-width="1.03">
			<rect x="1515" y="670.5" width="37.46" height="174.9"/>
			<rect x="1516" y="608.7" width="37.46" height="31.82"/>
			<rect x="1797" y="670.5" width="37.46" height="174.9"/>
			<rect x="1798" y="606.5" width="37.46" height="31.82"/>
			<path d="m1723 676.7c-10.89-5.73-23.97-8.594-38.7-8.594-11.52 0-22.1 2.046-31.65 5.934-8.612 3.581-15.87 8.594-21.79 14.84l-0.2075-18.42h-36.83v174.9h37.87v-95.25c0-16.47 4.047-29.06 11.93-37.55 7.886-8.39 19.2-12.58 33.51-12.58 13.8 0 24.49 4.093 31.75 12.28 7.263 8.185 11 20.36 11 36.12v97.1h37.87v-101.3c0-16.68-3.009-30.8-9.027-41.95-6.225-11.15-14.84-19.75-25.73-25.48z"/>
			<path d="m2075 789.7v-89.12h43.79v-29.06h-43.79v-44.3l-35.38 4.093v40.21h-27.29v29.06h27.29v99.14c0 29.47 17.74 45.84 43.68 45.84 25.94 0 36.52-4.706 36.52-4.706l-0.2076-32.74c-24.49 12.48-44.62 1.739-44.62-18.42z"/>
			<path d="m2233 670.2c-8.508 1.637-16.5 4.502-23.76 8.594-6.433 3.683-12.35 8.083-17.43 13.4l-0.2077-21.59h-37.77v174.9h38.81v-90.55c0-10.13 1.971-18.93 5.707-26.19 3.839-7.162 8.923-13.1 15.15-17.39 6.226-4.4 13.39-7.264 21.27-8.594 7.886-1.33 16.19-1.125 24.59 0.7162l1.245 0.307v-32.84l-0.8298-0.2046c-9.235-2.046-18.26-2.149-26.77-0.5116z"/>
			</g><polygon transform="matrix(1.038 0 0 1.023 -77.17 -56.21)" points="2309 948.8 2350 948.8 2458 711.7 2459 710.3 2419 710.3 2365 836.8 2312 710.3 2270 710.3 2346 874.8"/>
			
			<path d="m1940 739.1c-29.16-10.13-31.54-17.19-31.54-23.53 0-3.376 1.141-19.95 22.83-19.95 23.76 0 32.68 20.57 32.99 21.38l1.452 3.581 29.88-14.84-1.245-3.069c-2.386-5.934-16.6-35.3-57.9-37.04-36.94-1.535-62.05 17.29-63.91 48.09-2.075 34.38 29.36 47.17 59.04 56.58 30.3 9.515 30.3 19.24 30.3 23.43 0 2.251-0.7265 21.9-27.7 21.9-31.33 0-36.73-22.2-36.94-23.12l-1.037-4.604-33.41 16.88 1.764 3.172c13.8 25.07 36.42 37.86 67.13 37.86 32.68 0 65.68-17.5 65.68-50.95 0.1038-35.81-31.75-46.86-57.38-55.76z" stroke-width="1.03"/>
		<path d="m154.7 706.2c-41.19-14.22-47.83-25.37-47.83-37.96 0-12.58 7.367-33.05 37.25-33.05 37.46 0 51.26 33.25 51.26 33.25l32.89-16.27c-6.952-16.98-29.16-46.96-76.99-49.01-44.3-1.842-81.86 18.62-84.67 62.92-2.698 43.38 35.9 60.77 79.48 74.59 43.58 13.81 46.17 28.75 46.17 37.75 0 9.106-5.292 35.91-44.1 35.91-49.08 0-57.07-36.63-57.07-36.63l-36.42 18.42c18.26 33.05 48.14 50.65 90.06 50.65 41.92 0 87.36-21.69 87.36-66.71 0.1038-45.02-36.21-59.65-77.4-73.87z" stroke-width="1.03"/></g>
	</g>
<g transform="matrix(6.918 0 0 7.19 -5873 -2658)">
		<g transform="matrix(.3941 0 0 .3941 183.2 357.1)">
			<path class="st0" d="m320.5 343.1c-3.8-3.6-10.2-0.9-10.2 4.4v17.1c-37.3 7.4-71.7 25-100.2 51.5-32 29.6-53.9 67.7-63.6 110.2-0.9 3.8 1.5 7.5 5.3 8.4 0.5 0.1 1 0.2 1.6 0.2 3.2 0 6.1-2.2 6.8-5.4 17.3-76.2 76.5-134.7 150.2-150.5v18.8c0 5.3 6.3 8 10.2 4.4l27.3-25.9c2-1.9 2-5.2 0-7.1z"/>
			<path class="st0" d="m586.2 527h-20.6c-7.7-37.5-25.9-73.5-52.1-102.5-30.7-34.1-69.6-56.4-112.7-64.5-3.8-0.7-7.5 1.8-8.2 5.6s1.8 7.5 5.6 8.2c75.1 14.2 136.2 76.1 153 153.2h-17.3c-5.3 0-8 6.3-4.4 10.2l25.9 26.3c1.9 2 5.2 2 7.1 0l27.9-26.3c3.8-3.9 1.1-10.2-4.2-10.2z"/>
			<path class="st0" d="m321.6 772.9c-87.6-15.9-148.9-85.9-163.1-149.7l20.5-0.4c5.3-0.1 7.9-6.5 4.1-10.3l-27.5-26.7c-2-2-5.2-1.9-7.1 0.1l-25.3 27.8c-3.6 3.9-0.7 10.2 4.6 10.1l16.4-0.3c6.8 34.3 25.3 68.4 53.1 97.3 32.9 34.2 76.1 57.6 121.7 65.9 0.4 0.1 0.8 0.1 1.3 0.1 3.3 0 6.3-2.4 6.9-5.7 0.7-3.8-1.8-7.5-5.6-8.2z"/>
			<path class="st0" d="m564 609.8c-3.8-0.8-7.5 1.6-8.3 5.4-15.8 75.8-77 139.7-145.7 154.6v-18.8c0-5.6-6.7-8.5-10.8-4.6l-28.9 27.5c-2.1 2-2.1 5.5 0 7.5l28.9 27.5c4.1 3.9 10.8 1 10.8-4.6v-20.2c35.2-7 69.7-26.1 98.2-54.6 30.9-31 52.6-70.5 61.1-111.3 0.9-3.9-1.5-7.6-5.3-8.4z"/>
		</g>
		<path class="st0" d="m323.8 532-44.7 25.97v51.12l43.91 25.58 47.1-27.16v-49.19zm40.79 70.91-37.6-21.64v-41.15l37.6 21.4zm-39.89-16.55 35.55 20.42-16.71 9.617-35.32-20.3zm-3.271-46.63v42.13l-36.81 21.76v-42.49zm-33.27 68.23 14.58-8.632 35.28 20.26-14.98 8.632z" stroke-width=".3941"/>
	</g></g>
</svg>
