<?xml version="1.0" encoding="utf-8"?>
<!-- Generator: Adobe Illustrator 23.0.5, SVG Export Plug-In . SVG Version: 6.00 Build 0)  -->
<svg version="1.1" id="Layer_1" xmlns="http://www.w3.org/2000/svg" xmlns:xlink="http://www.w3.org/1999/xlink" x="0px" y="0px"
	 viewBox="0 0 2500 1234.5" style="enable-background:new 0 0 2500 1234.5;" xml:space="preserve">
<style type="text/css">
	.st0{fill:#5E45FF;}
</style>
<g>
	<g>
		<g>
			<path class="st0" d="M1205.2,67.1c-3.8-3.6-10.2-0.9-10.2,4.4v17.1c-37.3,7.4-71.7,25-100.2,51.5c-32,29.6-53.9,67.7-63.6,110.2
				c-0.9,3.8,1.5,7.5,5.3,8.4c0.5,0.1,1,0.2,1.6,0.2c3.2,0,6.1-2.2,6.8-5.4c17.3-76.2,76.5-134.7,150.2-150.5v18.8
				c0,5.3,6.3,8,10.2,4.4l27.3-25.9c2-1.9,2-5.2,0-7.1L1205.2,67.1z"/>
			<path class="st0" d="M1470.9,251h-20.6c-7.7-37.5-25.9-73.5-52.1-102.5c-30.7-34.1-69.6-56.4-112.7-64.5
				c-3.8-0.7-7.5,1.8-8.2,5.6c-0.7,3.8,1.8,7.5,5.6,8.2c75.1,14.2,136.2,76.1,153,153.2h-17.3c-5.3,0-8,6.3-4.4,10.2l25.9,26.3
				c1.9,2,5.2,2,7.1,0l27.9-26.3C1478.9,257.3,1476.2,251,1470.9,251z"/>
			<path class="st0" d="M1206.3,496.9c-87.6-15.9-148.9-85.9-163.1-149.7l20.5-0.4c5.3-0.1,7.9-6.5,4.1-10.3l-27.5-26.7
				c-2-2-5.2-1.9-7.1,0.1l-25.3,27.8c-3.6,3.9-0.7,10.2,4.6,10.1l16.4-0.3c6.8,34.3,25.3,68.4,53.1,97.3
				c32.9,34.2,76.1,57.6,121.7,65.9c0.4,0.1,0.8,0.1,1.3,0.1c3.3,0,6.3-2.4,6.9-5.7C1212.6,501.3,1210.1,497.6,1206.3,496.9z"/>
			<path class="st0" d="M1448.7,333.8c-3.8-0.8-7.5,1.6-8.3,5.4c-15.8,75.8-77,139.7-145.7,154.6v-18.8c0-5.6-6.7-8.5-10.8-4.6
				l-28.9,27.5c-2.1,2-2.1,5.5,0,7.5l28.9,27.5c4.1,3.9,10.8,1,10.8-4.6v-20.2c35.2-7,69.7-26.1,98.2-54.6
				c30.9-31,52.6-70.5,61.1-111.3C1454.9,338.3,1452.5,334.6,1448.7,333.8z"/>
		</g>
		<path class="st0" d="M1241.3,167.9l-113.4,65.9v129.7l111.4,64.9l119.5-68.9V234.7L1241.3,167.9z M1344.8,347.8l-95.4-54.9V188.5
			l95.4,54.3V347.8z M1243.6,305.8l90.2,51.8l-42.4,24.4l-89.6-51.5L1243.6,305.8z M1235.3,187.5v106.9l-93.4,55.2V241.8
			L1235.3,187.5z M1150.9,360.6l37-21.9l89.5,51.4l-38,21.9L1150.9,360.6z"/>
	</g>
	<g>
		<g>
			<path d="M340.2,1143.4c-1.8,3.8-4.4,6.6-7.7,8.6c-3.3,1.9-7.1,2.9-11.4,2.9c-4.6,0-8.7-1.1-12.3-3.2c-3.6-2.2-6.4-5.2-8.4-9.2
				c-2-4-3-8.6-3-13.8c0-5.3,1-9.9,3-13.8s4.8-7,8.4-9.1c3.6-2.2,7.7-3.2,12.3-3.2c4.3,0,8.1,0.9,11.4,2.8c3,1.7,5.4,4.3,7.2,7.6
				l13.2-9.8c-2.3-3.1-5.2-5.9-8.5-8.1c-6.6-4.5-14.4-6.8-23.2-6.8c-7.5,0-14.4,1.7-20.5,5.2c-6.1,3.4-10.9,8.2-14.4,14.4
				c-3.5,6.2-5.3,13.1-5.3,20.9s1.8,14.7,5.3,20.9c3.5,6.1,8.3,10.9,14.4,14.3s12.9,5.2,20.5,5.2c8.9,0,16.7-2.3,23.3-6.7
				c3.9-2.7,7.1-6,9.6-9.9L340.2,1143.4z"/>
			<path d="M433.7,1107.7c-3.6-6.2-8.5-11-14.6-14.4c-6.2-3.5-13-5.2-20.4-5.2c-7.4,0-14.2,1.7-20.4,5.2
				c-6.2,3.5-11.1,8.3-14.7,14.4c-3.6,6.2-5.4,13.1-5.4,20.8c0,7.8,1.8,14.8,5.4,20.9c3.6,6.2,8.5,11,14.7,14.4
				c6.2,3.5,13,5.2,20.4,5.2c7.4,0,14.2-1.7,20.4-5.2c6.2-3.5,11.1-8.3,14.7-14.4c3.6-6.1,5.4-13.1,5.4-20.9
				C439.1,1120.8,437.3,1113.9,433.7,1107.7z M419.7,1142.5c-2,4-4.9,7.1-8.5,9.2c-3.6,2.2-7.8,3.2-12.6,3.2c-4.8,0-9-1.1-12.6-3.2
				c-3.7-2.2-6.5-5.2-8.6-9.2c-2-4-3.1-8.7-3.1-13.9c0-5.3,1-9.9,3.1-13.9c2-4,4.9-7,8.6-9.1c3.7-2.1,7.9-3.2,12.6-3.2
				c4.8,0,8.9,1.1,12.6,3.2c3.6,2.1,6.5,5.1,8.5,9.1c2,4,3.1,8.6,3.1,13.9C422.8,1133.8,421.8,1138.5,419.7,1142.5z"/>
			<path d="M504.5,1089.1v54.4l-35.9-54.4h-15.9v79.2h15.9V1114l35.9,54.3h15.9v-79.2H504.5z"/>
			<path d="M587.2,1089.1v54.4l-35.9-54.4h-15.9v79.2h15.9V1114l35.9,54.3h15.9v-79.2H587.2z"/>
			<path d="M668.4,1102v-12.9h-48.9v79.2h48.9v-12.9h-33v-21H665v-12.6h-29.6V1102H668.4z"/>
			<path d="M753.5,1089.2v12.8h21.1v66.3h15.9V1102h21.1v-12.8H753.5z"/>
			<path d="M1047,1089.1h-18.5l-28.4,79.2h16.7l5.2-15.1h31.5l5.2,15.1h16.8L1047,1089.1z M1026.2,1140.5l11.4-33.1l11.4,33.1
				H1026.2z"/>
			<path d="M1130,1136.2c6-1.6,10.5-4.5,13.5-8.7c3-4.2,4.5-8.9,4.5-14.1c0-4.5-1.1-8.6-3.2-12.3c-2.2-3.7-5.4-6.6-9.7-8.7
				c-4.3-2.2-9.5-3.2-15.6-3.2h-31.7v79.1h15.9v-30.8h9.5l17.5,30.8h18.4L1130,1136.2z M1118.9,1125.6h-15.3v-23.2h15.3
				c4.3,0,7.5,1,9.6,3c2.1,2,3.2,4.8,3.2,8.4c0,3.7-1.1,6.6-3.2,8.7C1126.4,1124.5,1123.2,1125.6,1118.9,1125.6z"/>
			<path d="M1213.1,1102v-12.9h-50.9v79.2h50.9v-12.9h-35v-21h31.6v-12.6H1178V1102H1213.1z"/>
			<path d="M1348.5,1089.2l-14.1,61.1l-15.2-61.1h-17.7l-16.1,61.4l-13.9-61.4h-17l21.3,79.2l18.6-0.1l15.5-56.3l14.8,56.3h18.7
				l22.1-79.1H1348.5z"/>
			<path d="M1375.6,1089.2v79.1h15.9v-79.1H1375.6z"/>
			<path d="M1401.7,1089.2v12.8h21.1v66.3h15.9V1102h21.1v-12.8H1401.7z"/>
			<path d="M1519.7,1089.2v32.5h-33.9v-32.5H1470v79.1h15.9v-33.7h33.9v33.7h15.9v-79.1H1519.7z"/>
			<path d="M1720.2,1107.7c-3.6-6.2-8.5-11-14.6-14.4c-6.2-3.5-13-5.2-20.5-5.2c-7.4,0-14.2,1.7-20.4,5.2
				c-6.2,3.5-11.1,8.3-14.7,14.4c-3.6,6.2-5.4,13.1-5.4,20.8c0,7.8,1.8,14.8,5.4,20.9c3.6,6.2,8.5,11,14.7,14.4
				c6.2,3.5,13,5.2,20.4,5.2c7.4,0,14.2-1.7,20.4-5.2c6.2-3.5,11.1-8.3,14.7-14.4c3.6-6.1,5.4-13.1,5.4-20.9
				C1725.6,1120.8,1723.8,1113.9,1720.2,1107.7z M1706.2,1142.5c-2,4-4.9,7.1-8.5,9.2c-3.6,2.2-7.8,3.2-12.6,3.2
				c-4.8,0-9-1.1-12.6-3.2c-3.7-2.2-6.5-5.2-8.6-9.2c-2-4-3.1-8.7-3.1-13.9c0-5.3,1-9.9,3.1-13.9c2-4,4.9-7,8.6-9.1
				c3.7-2.1,7.9-3.2,12.6-3.2c4.8,0,9,1.1,12.6,3.2c3.6,2.1,6.5,5.1,8.5,9.1c2,4,3.1,8.6,3.1,13.9
				C1709.2,1133.8,1708.2,1138.5,1706.2,1142.5z"/>
			<path d="M1753.9,1155.7v-66.5h-15.9v79.1h47.9v-12.6H1753.9z"/>
			<path d="M1842.5,1089.2v48.9c0,5.4-1.4,9.5-4.2,12.3c-2.8,2.8-6.8,4.3-11.9,4.3c-5.1,0-9-1.4-11.8-4.3c-2.8-2.8-4.2-6.9-4.2-12.3
				v-48.9h-15.9v48.8c0,6.7,1.4,12.4,4.2,17.1c2.8,4.6,6.6,8.1,11.4,10.5c4.8,2.3,10.1,3.5,16,3.5c6,0,11.4-1.2,16.3-3.5
				c4.9-2.3,8.8-5.8,11.7-10.5c2.9-4.7,4.4-10.3,4.4-17.1v-48.8H1842.5z"/>
			<path d="M1868.3,1089.2v12.8h21.1v66.3h15.9V1102h21.1v-12.8H1868.3z"/>
			<path d="M1937.6,1089.2v79.1h15.9v-79.1H1937.6z"/>
			<path d="M2040.6,1107.7c-3.6-6.2-8.5-11-14.6-14.4c-6.2-3.5-13-5.2-20.4-5.2c-7.4,0-14.2,1.7-20.4,5.2
				c-6.2,3.5-11.1,8.3-14.7,14.4c-3.6,6.2-5.4,13.1-5.4,20.8c0,7.8,1.8,14.8,5.4,20.9c3.6,6.2,8.5,11,14.7,14.4
				c6.2,3.5,13,5.2,20.4,5.2c7.4,0,14.2-1.7,20.4-5.2c6.2-3.5,11.1-8.3,14.7-14.4c3.6-6.1,5.4-13.1,5.4-20.9
				C2046,1120.8,2044.2,1113.9,2040.6,1107.7z M2026.6,1142.5c-2,4-4.9,7.1-8.5,9.2c-3.6,2.2-7.8,3.2-12.6,3.2s-9-1.1-12.6-3.2
				c-3.7-2.2-6.5-5.2-8.5-9.2c-2-4-3.1-8.7-3.1-13.9c0-5.3,1-9.9,3.1-13.9c2-4,4.9-7,8.5-9.1c3.7-2.1,7.9-3.2,12.6-3.2
				s8.9,1.1,12.6,3.2c3.6,2.1,6.4,5.1,8.5,9.1c2,4,3.1,8.6,3.1,13.9C2029.7,1133.8,2028.7,1138.5,2026.6,1142.5z"/>
			<path d="M2111.3,1089.1v54.4l-35.9-54.4h-15.9v79.2h15.9V1114l35.9,54.3h15.9v-79.2H2111.3z"/>
			<path d="M736.2,1143.4c-1.8,3.8-4.4,6.6-7.7,8.6c-3.3,1.9-7.1,2.9-11.4,2.9c-4.6,0-8.7-1.1-12.3-3.2c-3.6-2.2-6.4-5.2-8.4-9.2
				c-2-4-3-8.6-3-13.8c0-5.3,1-9.9,3-13.8s4.8-7,8.4-9.1c3.6-2.2,7.7-3.2,12.3-3.2c4.3,0,8.1,0.9,11.4,2.8c3,1.7,5.4,4.3,7.2,7.6
				l13.2-9.8c-2.3-3.1-5.2-5.9-8.5-8.1c-6.6-4.5-14.4-6.8-23.2-6.8c-7.5,0-14.4,1.7-20.5,5.2c-6.1,3.4-10.9,8.2-14.4,14.4
				c-3.5,6.2-5.3,13.1-5.3,20.9s1.8,14.7,5.3,20.9c3.5,6.1,8.3,10.9,14.4,14.3s12.9,5.2,20.5,5.2c8.9,0,16.7-2.3,23.3-6.7
				c3.9-2.7,7.1-6,9.6-9.9L736.2,1143.4z"/>
			<path d="M980.9,1143.4c-1.8,3.8-4.4,6.6-7.7,8.6c-3.3,1.9-7.1,2.9-11.4,2.9c-4.6,0-8.7-1.1-12.3-3.2c-3.6-2.2-6.4-5.2-8.4-9.2
				c-2-4-3-8.6-3-13.8c0-5.3,1-9.9,3-13.8s4.8-7,8.4-9.1c3.6-2.2,7.7-3.2,12.3-3.2c4.3,0,8.1,0.9,11.4,2.8c3,1.7,5.4,4.3,7.2,7.6
				l13.2-9.8c-2.3-3.1-5.2-5.9-8.5-8.1c-6.6-4.5-14.4-6.8-23.2-6.8c-7.5,0-14.4,1.7-20.5,5.2c-6.1,3.4-10.9,8.2-14.4,14.4
				c-3.5,6.2-5.3,13.1-5.3,20.9s1.8,14.7,5.3,20.9c3.5,6.1,8.3,10.9,14.4,14.3s12.9,5.2,20.5,5.2c8.9,0,16.7-2.3,23.3-6.7
				c3.9-2.7,7.1-6,9.6-9.9L980.9,1143.4z"/>
			<g>
				<path d="M2153.3,1145.9c0.5,2.1,1.3,4,2.5,5.6c1.2,1.6,2.9,2.8,4.9,3.6c2,0.8,4.5,1.2,7.4,1.2c4.4,0,7.7-1,9.9-2.9
					c2.2-2,3.3-4.4,3.3-7.3c0-2.3-0.7-4.2-2-5.7c-1.4-1.5-3.3-2.8-5.7-3.9c-2.5-1.1-5.3-2.1-8.6-3.1c-3.1-0.9-6.1-1.9-9.1-2.9
					c-2.9-1.1-5.6-2.4-8-4c-2.4-1.6-4.3-3.6-5.7-6.1c-1.4-2.5-2.1-5.7-2.1-9.5c0-4.9,1.2-9,3.5-12.4c2.3-3.4,5.6-5.9,9.8-7.7
					c4.2-1.8,9-2.7,14.4-2.7c4.6,0,8.8,0.7,12.5,2c3.7,1.3,6.8,3.2,9.4,5.8c2.6,2.5,4.4,5.7,5.6,9.5l-14.2,3.7
					c-0.4-1.7-1.2-3.1-2.4-4.3c-1.2-1.2-2.8-2.2-4.7-2.9c-1.9-0.7-3.9-1.1-5.9-1.1c-2.3-0.1-4.4,0.3-6.3,1c-1.9,0.8-3.4,1.9-4.5,3.3
					c-1.1,1.4-1.6,3.1-1.6,5c0,2.1,0.6,3.8,1.9,5s3,2.3,5.2,3.2c2.2,0.9,4.5,1.7,7,2.5c3.2,1,6.4,2,9.6,3.2c3.2,1.1,6.1,2.6,8.8,4.4
					c2.6,1.8,4.8,4,6.3,6.7c1.6,2.7,2.4,6.1,2.4,10.2c0,4.5-1,8.5-3.1,12c-2.1,3.6-5.2,6.4-9.3,8.5c-4.1,2.1-9.3,3.2-15.5,3.2
					c-5.2,0-9.9-0.8-14.1-2.3c-4.2-1.5-7.6-3.8-10.4-6.6c-2.7-2.9-4.5-6.3-5.3-10.3L2153.3,1145.9z"/>
			</g>
			<g>
				<path d="M1593.6,1145.9c0.5,2.1,1.3,4,2.5,5.6c1.2,1.6,2.9,2.8,4.9,3.6c2,0.8,4.5,1.2,7.4,1.2c4.4,0,7.7-1,9.9-2.9
					c2.2-2,3.3-4.4,3.3-7.3c0-2.3-0.7-4.2-2-5.7c-1.4-1.5-3.3-2.8-5.7-3.9c-2.5-1.1-5.3-2.1-8.6-3.1c-3.1-0.9-6.1-1.9-9.1-2.9
					c-2.9-1.1-5.6-2.4-8-4c-2.4-1.6-4.3-3.6-5.7-6.1c-1.4-2.5-2.1-5.7-2.1-9.5c0-4.9,1.2-9,3.5-12.4c2.3-3.4,5.6-5.9,9.8-7.7
					c4.2-1.8,9-2.7,14.4-2.7c4.6,0,8.8,0.7,12.5,2c3.7,1.3,6.8,3.2,9.4,5.8c2.6,2.5,4.4,5.7,5.6,9.5l-14.2,3.7
					c-0.4-1.7-1.2-3.1-2.4-4.3c-1.2-1.2-2.8-2.2-4.7-2.9c-1.9-0.7-3.9-1.1-5.9-1.1c-2.3-0.1-4.4,0.3-6.3,1c-1.9,0.8-3.4,1.9-4.5,3.3
					c-1.1,1.4-1.6,3.1-1.6,5c0,2.1,0.6,3.8,1.9,5s3,2.3,5.2,3.2c2.2,0.9,4.5,1.7,7,2.5c3.2,1,6.4,2,9.6,3.2c3.2,1.1,6.1,2.6,8.8,4.4
					c2.6,1.8,4.8,4,6.3,6.7c1.6,2.7,2.4,6.1,2.4,10.2c0,4.5-1,8.5-3.1,12c-2.1,3.6-5.2,6.4-9.3,8.5c-4.1,2.1-9.3,3.2-15.5,3.2
					c-5.2,0-9.9-0.8-14.1-2.3c-4.2-1.5-7.6-3.8-10.4-6.6c-2.7-2.9-4.5-6.3-5.3-10.3L1593.6,1145.9z"/>
			</g>
			<g>
				<path d="M832.4,1145.9c0.5,2.1,1.3,4,2.5,5.6c1.2,1.6,2.9,2.8,4.9,3.6c2,0.8,4.5,1.2,7.4,1.2c4.4,0,7.7-1,9.9-2.9
					c2.2-2,3.3-4.4,3.3-7.3c0-2.3-0.7-4.2-2-5.7c-1.4-1.5-3.3-2.8-5.7-3.9c-2.5-1.1-5.3-2.1-8.6-3.1c-3.1-0.9-6.1-1.9-9.1-2.9
					c-2.9-1.1-5.6-2.4-8-4c-2.4-1.6-4.3-3.6-5.7-6.1c-1.4-2.5-2.1-5.7-2.1-9.5c0-4.9,1.2-9,3.5-12.4c2.3-3.4,5.6-5.9,9.8-7.7
					c4.2-1.8,9-2.7,14.4-2.7c4.6,0,8.8,0.7,12.5,2c3.7,1.3,6.8,3.2,9.4,5.8c2.6,2.5,4.4,5.7,5.6,9.5l-14.2,3.7
					c-0.4-1.7-1.2-3.1-2.4-4.3c-1.2-1.2-2.8-2.2-4.7-2.9c-1.9-0.7-3.9-1.1-5.9-1.1c-2.3-0.1-4.4,0.3-6.3,1c-1.9,0.8-3.4,1.9-4.5,3.3
					c-1.1,1.4-1.6,3.1-1.6,5c0,2.1,0.6,3.8,1.9,5s3,2.3,5.2,3.2c2.2,0.9,4.5,1.7,7,2.5c3.2,1,6.4,2,9.6,3.2c3.2,1.1,6.1,2.6,8.8,4.4
					c2.6,1.8,4.8,4,6.3,6.7c1.6,2.7,2.4,6.1,2.4,10.2c0,4.5-1,8.5-3.1,12c-2.1,3.6-5.2,6.4-9.3,8.5c-4.1,2.1-9.3,3.2-15.5,3.2
					c-5.2,0-9.9-0.8-14.1-2.3c-4.2-1.5-7.6-3.8-10.4-6.6c-2.7-2.9-4.5-6.3-5.3-10.3L832.4,1145.9z"/>
			</g>
		</g>
		<g>
			<path d="M363.4,803.9c0,16.1-3.9,28.4-11.5,36.5c-7.6,8.1-18.3,12.2-31.7,12.2c-13.7,0-24-4-30.6-11.8
				c-6.7-7.9-10.1-19.6-10.1-34.8v-95.6h-36.5V810c0,16.1,2.9,29.7,8.6,40.5c5.7,10.8,14,19.2,24.5,24.7c10.5,5.6,23,8.4,37.1,8.4
				c11,0,21-2,30-5.8c8.2-3.6,15.2-8.6,20.8-15.1l2.4,18.5h33.1V710.3h-36.1V803.9z"/>
			<path d="M570.1,718.9c-11.6-7.3-25.1-11-40.1-11c-13.9,0-25.8,2.8-35.5,8.2c-8.6,4.8-15.6,10.7-20.9,17.4l0.6-23.2h-34.1v238.5
				h33.8v-89.4c4.8,5.8,10.9,10.8,18.3,15.1c10.4,6,23.1,9.1,37.8,9.1c15.4,0,29.1-3.7,40.7-11c11.6-7.3,20.8-17.6,27.2-30.8
				c6.5-13.1,9.7-28.6,9.7-46.1c0-17.6-3.4-33.2-10.1-46.2C590.9,736.5,581.7,726.2,570.1,718.9z M571.2,795.8
				c0,17-4.5,30.9-13.4,41.2c-8.9,10.3-20.6,15.5-34.9,15.5c-9.2,0-17.6-2.3-24.8-6.8c-7.2-4.5-13.2-11-17.5-19.4
				c-4.4-8.4-6.6-18.7-6.6-30.6c0-12.2,2.2-22.6,6.6-31c4.4-8.4,10.3-14.8,17.5-19.2c7.2-4.4,15.6-6.6,24.8-6.6
				c14.3,0,26,5.2,34.9,15.5C566.7,764.9,571.2,778.8,571.2,795.8z"/>
			<path d="M768.1,718.9c-11.6-7.3-25.1-11-40.1-11c-13.9,0-25.8,2.8-35.5,8.2c-8.6,4.8-15.6,10.7-20.9,17.4l0.6-23.2h-34.1v238.5
				H672v-89.4c4.8,5.8,10.9,10.8,18.3,15.1c10.4,6,23.1,9.1,37.8,9.1c15.4,0,29.1-3.7,40.7-11c11.6-7.3,20.8-17.6,27.2-30.8
				c6.5-13.1,9.7-28.6,9.7-46.1c0-17.6-3.4-33.2-10.1-46.2C789,736.5,779.7,726.2,768.1,718.9z M769.3,795.8
				c0,17-4.5,30.9-13.4,41.2c-8.9,10.3-20.6,15.5-34.9,15.5c-9.2,0-17.6-2.3-24.8-6.8c-7.2-4.5-13.2-11-17.5-19.4
				c-4.4-8.4-6.6-18.7-6.6-30.6c0-12.2,2.2-22.6,6.6-31c4.4-8.4,10.3-14.8,17.5-19.2c7.2-4.4,15.6-6.6,24.8-6.6
				c14.3,0,26,5.2,34.9,15.5C764.8,764.9,769.3,778.8,769.3,795.8z"/>
			<rect x="839.3" y="646" width="33.8" height="235.3"/>
			<polygon points="991.2,836.8 937.9,710.3 896.5,710.3 971.9,874.8 935.7,948.8 976.3,948.8 1085.2,710.3 1044.9,710.3 			"/>
			<polygon points="1363.2,838 1271.5,648.3 1271.2,647.7 1231,647.7 1231,881.2 1269,881.2 1269,727.7 1343,880.7 1343.2,881.2 
				1380.8,881.2 1453,727.8 1453,881.2 1490.6,881.2 1490.6,647.7 1451.8,647.7 			"/>
			<rect x="1534.1" y="710.3" width="36.1" height="170.9"/>
			<rect x="1534.1" y="647.7" width="36.1" height="31.1"/>
			<rect x="1806" y="710.3" width="36.1" height="170.9"/>
			<rect x="1806" y="647.7" width="36.1" height="31.1"/>
			<path d="M1735.1,716.3c-10.5-5.6-23.1-8.4-37.3-8.4c-11.1,0-21.3,2-30.5,5.8c-8.3,3.5-15.3,8.4-21,14.5l-0.2-18h-35.5v170.9h36.5
				V788c0-16.1,3.9-28.4,11.5-36.7c7.6-8.2,18.5-12.3,32.3-12.3c13.3,0,23.6,4,30.6,12c7,8,10.6,19.9,10.6,35.3v94.9h36.5v-99
				c0-16.3-2.9-30.1-8.7-41C1753.9,730.3,1745.6,721.9,1735.1,716.3z"/>
			<path d="M2074.6,826.8v-87.1h42.2v-28.4h-42.2V668l-34.1,4v39.3h-26.3v28.4h26.3v96.9c0,28.8,17.1,44.8,42.1,44.8
				s35.2-4.6,35.2-4.6l-0.2-32C2094,857,2074.6,846.5,2074.6,826.8z"/>
			<path d="M2226.7,710c-8.2,1.6-15.9,4.4-22.9,8.4c-6.2,3.6-11.9,7.9-16.8,13.1l-0.2-21.1h-36.4v170.9h37.4v-88.5
				c0-9.9,1.9-18.5,5.5-25.6c3.7-7,8.6-12.8,14.6-17c6-4.3,12.9-7.1,20.5-8.4c7.6-1.3,15.6-1.1,23.7,0.7l1.2,0.3v-32.1l-0.8-0.2
				C2243.6,708.5,2234.9,708.4,2226.7,710z"/>
			<polygon points="2418.7,710.3 2365,836.8 2311.7,710.3 2270.3,710.3 2345.7,874.8 2309.4,948.8 2350.1,948.8 2458.3,711.7 
				2459,710.3 			"/>
			<path d="M137.3,745.2c-39.7-13.9-46.1-24.8-46.1-37.1s7.1-32.3,35.9-32.3c36.1,0,49.4,32.5,49.4,32.5l31.7-15.9
				c-6.7-16.6-28.1-45.9-74.2-47.9c-42.7-1.8-78.9,18.2-81.6,61.5c-2.6,42.4,34.6,59.4,76.6,72.9c42,13.5,44.5,28.1,44.5,36.9
				c0,8.9-5.1,35.1-42.5,35.1c-47.3,0-55-35.8-55-35.8l-35.1,18c17.6,32.3,46.4,49.5,86.8,49.5c40.4,0,84.2-21.2,84.2-65.2
				C212,773.4,177,759.1,137.3,745.2z"/>
			<path d="M1944.3,777.3c-28.1-9.9-30.4-16.8-30.4-23c0-3.3,1.1-19.5,22-19.5c22.9,0,31.5,20.1,31.8,20.9l1.4,3.5l28.8-14.5l-1.2-3
				c-2.3-5.8-16-34.5-55.8-36.2c-35.6-1.5-59.8,16.9-61.6,47c-2,33.6,28.3,46.1,56.9,55.3c29.2,9.3,29.2,18.8,29.2,22.9
				c0,2.2-0.7,21.4-26.7,21.4c-30.2,0-35.4-21.7-35.6-22.6l-1-4.5l-32.2,16.5l1.7,3.1c13.3,24.5,35.1,37,64.7,37
				c31.5,0,63.3-17.1,63.3-49.8C1999.7,796.8,1969,786,1944.3,777.3z"/>
		</g>
	</g>
</g>
</svg>
