<?xml version="1.0" encoding="UTF-8"?>
<!-- Generator: Adobe Illustrator 23.0.5, SVG Export Plug-In . SVG Version: 6.00 Build 0)  -->
<svg width="264" height="33.89" version="1.1" viewBox="0 0 264 33.89" xml:space="preserve" xmlns="http://www.w3.org/2000/svg">
<style type="text/css">
	.st0{fill:#5E45FF;}
</style>
<g transform="translate(-1118 -600.3)">
	
	<g transform="matrix(.07422 0 0 .07707 1203 533.5)">
		<g transform="matrix(1.067 0 0 1.115 -126.5 30.84)">
			
			
			
			
			
			
			
			
			
			
			
			
			
			
			
			
			
			
			
			
			
			
			
			
			
		</g>
		<g transform="matrix(1.303 0 0 1.361 -822.6 -238.2)"><g stroke-width="1.03">
			<path d="m396.6 978.9c0 16.47-4.047 29.06-11.93 37.34-7.886 8.287-18.99 12.48-32.89 12.48-14.21 0-24.9-4.092-31.75-12.07-6.952-8.083-10.48-20.05-10.48-35.61v-97.81h-37.87v101.9c0 16.47 3.009 30.39 8.923 41.44 5.914 11.05 14.53 19.64 25.42 25.27 10.89 5.73 23.86 8.594 38.49 8.594 11.41 0 21.79-2.046 31.13-5.934 8.508-3.683 15.77-8.799 21.58-15.45l2.49 18.93h34.34v-174.9h-37.46z"/>
			<path d="m611 892c-12.04-7.469-26.04-11.25-41.61-11.25-14.42 0-26.77 2.865-36.83 8.39-8.923 4.911-16.19 10.95-21.69 17.8l0.6226-23.74h-35.38v244h35.07v-91.47c4.98 5.934 11.31 11.05 18.99 15.45 10.79 6.139 23.97 9.311 39.22 9.311 15.98 0 30.19-3.786 42.23-11.25 12.04-7.469 21.58-18.01 28.22-31.51 6.744-13.4 10.06-29.26 10.06-47.17 0-18.01-3.528-33.97-10.48-47.27-6.848-13.3-16.39-23.84-28.43-31.31zm1.141 78.68c0 17.39-4.669 31.62-13.9 42.15-9.234 10.54-21.37 15.86-36.21 15.86-9.546 0-18.26-2.353-25.73-6.957-7.471-4.604-13.7-11.25-18.16-19.85-4.565-8.594-6.848-19.13-6.848-31.31 0-12.48 2.283-23.12 6.848-31.72 4.565-8.594 10.69-15.14 18.16-19.64 7.471-4.502 16.19-6.753 25.73-6.753 14.84 0 26.98 5.32 36.21 15.86 9.234 10.74 13.9 24.96 13.9 42.36z"/>
			<path d="m816.5 892c-12.04-7.469-26.04-11.25-41.61-11.25-14.42 0-26.77 2.865-36.83 8.39-8.923 4.911-16.19 10.95-21.69 17.8l0.6226-23.74h-35.38v244h35.17v-91.47c4.98 5.934 11.31 11.05 18.99 15.45 10.79 6.139 23.97 9.311 39.22 9.311 15.98 0 30.19-3.786 42.23-11.25 12.04-7.469 21.58-18.01 28.22-31.51 6.744-13.4 10.06-29.26 10.06-47.17 0-18.01-3.528-33.97-10.48-47.27-6.848-13.3-16.5-23.84-28.53-31.31zm1.245 78.68c0 17.39-4.669 31.62-13.9 42.15-9.234 10.54-21.37 15.86-36.21 15.86-9.546 0-18.26-2.353-25.73-6.957-7.471-4.604-13.7-11.25-18.16-19.85-4.565-8.594-6.848-19.13-6.848-31.31 0-12.48 2.283-23.12 6.848-31.72 4.565-8.594 10.69-15.14 18.16-19.64 7.471-4.502 16.19-6.753 25.73-6.753 14.84 0 26.98 5.32 36.21 15.86 9.234 10.74 13.9 24.96 13.9 42.36z"/>
			<rect x="890.3" y="817.4" width="35.07" height="240.7"/>
			</g><polygon transform="matrix(1.038 0 0 1.023 19.5 156.4)" points="971.9 874.8 935.7 948.8 976.3 948.8 1085 710.3 1045 710.3 991.2 836.8 937.9 710.3 896.5 710.3"/>
			<polygon transform="matrix(1.038 0 0 1.023 -71.62 164.2)" points="1231 647.7 1231 881.2 1269 881.2 1269 727.7 1343 880.7 1343 881.2 1381 881.2 1453 727.8 1453 881.2 1491 881.2 1491 647.7 1452 647.7 1363 838 1272 648.3 1271 647.7"/><g stroke-width="1.03">
			<rect x="1521" y="891" width="37.46" height="174.9"/>
			<rect x="1521" y="829.1" width="37.46" height="31.82"/>
			<rect x="1801" y="891" width="37.46" height="174.9"/>
			<rect x="1801" y="828.9" width="37.46" height="31.82"/>
			<path d="m1729 897.1c-10.89-5.73-23.97-8.594-38.7-8.594-11.52 0-22.1 2.046-31.65 5.934-8.612 3.581-15.87 8.594-21.79 14.84l-0.2075-18.42h-36.83v174.9h37.87v-95.25c0-16.47 4.047-29.06 11.93-37.55 7.886-8.39 19.2-12.58 33.51-12.58 13.8 0 24.49 4.093 31.75 12.28 7.263 8.185 11 20.36 11 36.12v97.1h37.87v-101.3c0-16.68-3.009-30.8-9.027-41.95-6.225-11.15-14.84-19.75-25.73-25.48z"/>
			<path d="m2081 1010v-89.12h43.79v-29.06h-43.79v-44.3l-35.38 4.092v40.21h-27.29v29.06h27.29v99.14c0 29.47 17.74 45.84 43.68 45.84 25.94 0 36.52-4.706 36.52-4.706l-0.2076-32.74c-24.49 12.48-44.62 1.739-44.62-18.42z"/>
			<path d="m2239 890.7c-8.508 1.637-16.5 4.502-23.76 8.594-6.433 3.683-12.35 8.083-17.43 13.4l-0.2077-21.59h-37.77v174.9h38.81v-90.55c0-10.13 1.971-18.93 5.707-26.19 3.839-7.162 8.923-13.1 15.15-17.39 6.226-4.4 13.39-7.264 21.27-8.594 7.886-1.33 16.19-1.125 24.59 0.7162l1.245 0.307v-32.84l-0.8298-0.2046c-9.235-2.046-18.26-2.149-26.77-0.5116z"/>
			</g><polygon transform="matrix(1.038 0 0 1.023 -71.62 164.2)" points="2270 710.3 2346 874.8 2309 948.8 2350 948.8 2458 711.7 2459 710.3 2419 710.3 2365 836.8 2312 710.3"/>
			
			<path d="m1946 959.5c-29.16-10.13-31.54-17.19-31.54-23.53 0-3.376 1.141-19.95 22.83-19.95 23.76 0 32.68 20.57 32.99 21.38l1.452 3.581 29.88-14.84-1.245-3.069c-2.386-5.934-16.6-35.3-57.9-37.04-36.94-1.535-62.05 17.29-63.91 48.09-2.075 34.38 29.36 47.17 59.04 56.58 30.3 9.515 30.3 19.23 30.3 23.43 0 2.251-0.7265 21.9-27.7 21.9-31.33 0-36.73-22.2-36.94-23.12l-1.037-4.604-33.41 16.88 1.764 3.172c13.8 25.07 36.42 37.86 67.13 37.86 32.68 0 65.68-17.5 65.68-50.95 0.1038-35.81-31.75-46.86-57.38-55.76z" stroke-width="1.03"/>
		<path d="m162 918.9c-41.19-14.22-47.83-25.37-47.83-37.96 0-12.58 7.367-33.05 37.25-33.05 37.46 0 51.26 33.25 51.26 33.25l32.89-16.27c-6.952-16.98-29.16-46.96-76.99-49.01-44.3-1.842-81.86 18.62-84.67 62.92-2.698 43.38 35.9 60.77 79.48 74.59 43.58 13.81 46.17 28.75 46.17 37.75 0 9.106-5.292 35.91-44.1 35.91-49.08 0-57.07-36.63-57.07-36.63l-36.42 18.42c18.26 33.05 48.14 50.65 90.06 50.65 41.92 0 87.36-21.69 87.36-66.71 0.1038-45.02-36.21-59.65-77.4-73.87z" stroke-width="1.03"/></g>
	</g>
<g transform="matrix(.09865 0 0 .1025 1102 554.1)">
		<g transform="matrix(.5791 0 0 .5791 96.77 252.9)">
			<path class="st0" d="m320.5 343.1c-3.8-3.6-10.2-0.9-10.2 4.4v17.1c-37.3 7.4-71.7 25-100.2 51.5-32 29.6-53.9 67.7-63.6 110.2-0.9 3.8 1.5 7.5 5.3 8.4 0.5 0.1 1 0.2 1.6 0.2 3.2 0 6.1-2.2 6.8-5.4 17.3-76.2 76.5-134.7 150.2-150.5v18.8c0 5.3 6.3 8 10.2 4.4l27.3-25.9c2-1.9 2-5.2 0-7.1z"/>
			<path class="st0" d="m586.2 527h-20.6c-7.7-37.5-25.9-73.5-52.1-102.5-30.7-34.1-69.6-56.4-112.7-64.5-3.8-0.7-7.5 1.8-8.2 5.6s1.8 7.5 5.6 8.2c75.1 14.2 136.2 76.1 153 153.2h-17.3c-5.3 0-8 6.3-4.4 10.2l25.9 26.3c1.9 2 5.2 2 7.1 0l27.9-26.3c3.8-3.9 1.1-10.2-4.2-10.2z"/>
			<path class="st0" d="m321.6 772.9c-87.6-15.9-148.9-85.9-163.1-149.7l20.5-0.4c5.3-0.1 7.9-6.5 4.1-10.3l-27.5-26.7c-2-2-5.2-1.9-7.1 0.1l-25.3 27.8c-3.6 3.9-0.7 10.2 4.6 10.1l16.4-0.3c6.8 34.3 25.3 68.4 53.1 97.3 32.9 34.2 76.1 57.6 121.7 65.9 0.4 0.1 0.8 0.1 1.3 0.1 3.3 0 6.3-2.4 6.9-5.7 0.7-3.8-1.8-7.5-5.6-8.2z"/>
			<path class="st0" d="m564 609.8c-3.8-0.8-7.5 1.6-8.3 5.4-15.8 75.8-77 139.7-145.7 154.6v-18.8c0-5.6-6.7-8.5-10.8-4.6l-28.9 27.5c-2.1 2-2.1 5.5 0 7.5l28.9 27.5c4.1 3.9 10.8 1 10.8-4.6v-20.2c35.2-7 69.7-26.1 98.2-54.6 30.9-31 52.6-70.5 61.1-111.3 0.9-3.9-1.5-7.6-5.3-8.4z"/>
		</g>
		<path class="st0" d="m303.3 509.9-65.67 38.16v75.11l64.51 37.58 69.2-39.9v-72.27zm59.94 104.2-55.25-31.79v-60.46l55.25 31.44zm-58.6-24.32 52.23 30-24.55 14.13-51.89-29.82zm-4.806-68.51v61.9l-54.09 31.97v-62.43zm-48.88 100.2 21.43-12.68 51.83 29.77-22.01 12.68z" stroke-width=".5791"/>
	</g></g>
</svg>
