<?xml version="1.0" encoding="UTF-8" standalone="no"?>
<!-- Generator: Adobe Illustrator 23.0.5, SVG Export Plug-In . SVG Version: 6.00 Build 0)  -->

<svg
   version="1.1"
   id="Layer_1"
   x="0px"
   y="0px"
   viewBox="0 0 220 108.548"
   xml:space="preserve"
   width="220"
   height="108.548"
   xmlns="http://www.w3.org/2000/svg"
   xmlns:svg="http://www.w3.org/2000/svg"><defs
   id="defs43">
		
		
	
		
		
	
			
			
			
			
		
			
			
			
			
			
			
			
			
			
			
			
			
			
			
			
			
			
			
			
			
			
			
			
			
			
		
			
			
			
			
			
			
			
			
			
			
			
			
			
			
			
			
		
				
			</defs>
<style
   type="text/css"
   id="style1">
	.st0{fill:#5E45FF;}
</style>
<g
   id="g43">
	
	<path
   d="m 50.329098,54.008762 c 0,1.446397 -0.327398,2.551407 -0.96541,3.279096 -0.638008,0.727689 -1.536257,1.09602 -2.661168,1.09602 -1.150095,0 -2.014769,-0.35935 -2.568827,-1.060086 -0.562458,-0.709724 -0.847884,-1.760831 -0.847884,-3.126369 V 45.6089 h -3.064121 v 8.947875 c 0,1.446393 0.243452,2.668196 0.721956,3.638442 0.478508,0.970255 1.17528,1.724897 2.056741,2.219002 0.881463,0.503093 1.930817,0.754641 3.114494,0.754641 0.923434,0 1.762921,-0.179676 2.518459,-0.521057 0.688377,-0.32342 1.276017,-0.772613 1.74613,-1.356557 l 0.201477,1.662001 h 2.7787 V 45.599916 h -3.030547 z"
   id="path31"
   style="stroke-width:0.0868441" /><path
   d="m 67.681276,46.372523 c -0.973803,-0.655816 -2.107111,-0.988221 -3.366343,-0.988221 -1.166885,0 -2.165871,0.251548 -2.980171,0.736674 -0.72196,0.431223 -1.309598,0.961269 -1.754528,1.563185 l 0.05037,-2.084245 h -2.862653 v 21.42639 h 2.837464 V 58.99478 c 0.402955,0.52106 0.915042,0.970249 1.536263,1.356552 0.873065,0.539028 1.939207,0.817528 3.173252,0.817528 1.292812,0 2.442907,-0.332397 3.416711,-0.988218 0.973805,-0.65582 1.74613,-1.581151 2.283404,-2.76701 0.545664,-1.176884 0.814298,-2.569374 0.814298,-4.14154 0,-1.581151 -0.285424,-2.982628 -0.847881,-4.15052 -0.554059,-1.167897 -1.326385,-2.093231 -2.300189,-2.749049 z m 0.09234,6.908551 c 0,1.527248 -0.37777,2.776 -1.124909,3.701331 -0.747145,0.925331 -1.729339,1.392491 -2.929806,1.392491 -0.772329,0 -1.477495,-0.20663 -2.081929,-0.610896 -0.604428,-0.404274 -1.10812,-0.988224 -1.469099,-1.74286 -0.369372,-0.754642 -0.554057,-1.679975 -0.554057,-2.749048 0,-1.096026 0.184685,-2.030341 0.554057,-2.784981 0.369376,-0.754643 0.864671,-1.329605 1.469099,-1.724893 0.604434,-0.395288 1.3096,-0.592933 2.081929,-0.592933 1.200467,0 2.182661,0.467159 2.929806,1.39249 0.747139,0.943302 1.124909,2.192052 1.124909,3.719299 z"
   id="path32"
   style="stroke-width:0.0868441" /><path
   d="m 84.303098,46.372523 c -0.973805,-0.655816 -2.107111,-0.988221 -3.366338,-0.988221 -1.166887,0 -2.165873,0.251548 -2.980178,0.736674 -0.721958,0.431223 -1.309595,0.961269 -1.754526,1.563185 l 0.05037,-2.084245 H 73.38978 v 21.42639 h 2.845856 V 58.99478 c 0.402955,0.52106 0.915041,0.970249 1.53626,1.356552 0.873065,0.539028 1.939212,0.817528 3.173258,0.817528 1.292808,0 2.442903,-0.332397 3.416708,-0.988218 0.973803,-0.65582 1.74613,-1.581151 2.283402,-2.76701 0.545666,-1.176884 0.814301,-2.569374 0.814301,-4.14154 0,-1.581151 -0.285424,-2.982628 -0.84788,-4.15052 -0.554061,-1.167897 -1.334782,-2.093231 -2.308587,-2.749049 z m 0.100736,6.908551 c 0,1.527248 -0.377767,2.776 -1.124907,3.701331 -0.747144,0.925331 -1.729344,1.392491 -2.929808,1.392491 -0.772328,0 -1.477496,-0.20663 -2.081925,-0.610896 -0.60443,-0.404274 -1.108123,-0.988224 -1.469102,-1.74286 -0.369374,-0.754642 -0.554061,-1.679975 -0.554061,-2.749048 0,-1.096026 0.184687,-2.030341 0.554061,-2.784981 0.369375,-0.754643 0.864672,-1.329605 1.469102,-1.724893 0.604429,-0.395288 1.309597,-0.592933 2.081925,-0.592933 1.200464,0 2.182664,0.467159 2.929808,1.39249 0.74714,0.943302 1.124907,2.192052 1.124907,3.719299 z"
   id="path33"
   style="stroke-width:0.0868441" /><path
   id="rect33"
   style="stroke-width:0.0868441"
   d="m 90.280235,39.823334 h 2.837462 V 60.96224 h -2.837462 z" /><path
   id="polygon33"
   d="m 971.9,874.8 -36.2,74 h 40.6 l 108.9,-238.5 h -40.3 L 991.2,836.8 937.9,710.3 h -41.4 z"
   transform="matrix(0.0839486,0,0,0.08983811,19.822178,-18.856342)" /><path
   id="polygon34"
   d="m 1231,881.2 h 38 V 727.7 l 74,153 0.2,0.5 h 37.6 L 1453,727.8 v 153.4 h 37.6 V 647.7 h -38.8 l -88.6,190.3 -91.7,-189.7 -0.3,-0.6 H 1231 Z"
   transform="matrix(0.0839486,0,0,0.08983811,12.768975,-16.368964)" /><path
   id="rect34"
   style="stroke-width:0.0868441"
   d="m 141.60181,47.443031 h 3.03054 v 15.353336 h -3.03054 z" /><path
   id="rect35"
   style="stroke-width:0.0868441"
   d="m 141.60181,42.012329 h 3.03054 v 2.793965 h -3.03054 z" /><path
   id="rect36"
   style="stroke-width:0.0868441"
   d="m 164.26743,47.443031 h 3.03054 v 15.353336 h -3.03054 z" /><path
   id="rect37"
   style="stroke-width:0.0868441"
   d="m 164.26743,41.996994 h 3.03054 v 2.793965 h -3.03054 z" /><path
   d="m 158.4282,47.982082 c -0.88146,-0.503094 -1.93921,-0.754642 -3.1313,-0.754642 -0.9318,0 -1.78809,0.179678 -2.56042,0.52106 -0.69677,0.314434 -1.28441,0.754642 -1.76292,1.30265 l -0.0168,-1.617084 h -2.98018 v 15.353337 h 3.06412 V 54.42347 c 0,-1.446388 0.3274,-2.551404 0.96542,-3.297054 0.63802,-0.736677 1.55306,-1.105016 2.71153,-1.105016 1.11653,0 1.98119,0.359356 2.56884,1.078059 0.58761,0.718712 0.88985,1.787779 0.88985,3.17129 v 8.525628 h 3.06412 v -8.893966 c 0,-1.464363 -0.24346,-2.704126 -0.73037,-3.683359 -0.50368,-0.979242 -1.20045,-1.733884 -2.08191,-2.23697 z"
   id="path37"
   style="stroke-width:0.0868441" /><path
   d="m 186.92877,57.909186 v -7.824899 h 3.54261 v -2.551395 h -3.54261 v -3.889993 l -2.86265,0.359347 v 3.530646 h -2.20787 v 2.551395 h 2.20787 v 8.705315 c 0,2.587343 1.43549,4.024749 3.5342,4.024749 2.09872,0 2.955,-0.413252 2.955,-0.413252 l -0.0168,-2.87482 c -1.98119,1.096024 -3.60976,0.152721 -3.60976,-1.617093 z"
   id="path38"
   style="stroke-width:0.0868441" /><path
   d="m 199.69732,47.416101 c -0.68834,0.143739 -1.33478,0.395286 -1.92242,0.754642 -0.52048,0.323408 -0.999,0.70972 -1.4103,1.176876 l -0.0168,-1.895588 h -3.05576 v 15.353337 h 3.13969 v -7.950672 c 0,-0.889399 0.1595,-1.662006 0.46172,-2.299857 0.31058,-0.628868 0.72195,-1.149928 1.22564,-1.527249 0.50372,-0.386304 1.08297,-0.637851 1.72096,-0.754642 0.638,-0.116783 1.30958,-0.09882 1.9896,0.06289 l 0.1007,0.02696 v -2.883803 l -0.0671,-0.01797 c -0.74717,-0.179678 -1.47752,-0.18866 -2.1659,-0.04492 z"
   id="path39"
   style="stroke-width:0.0868441" /><path
   id="polygon39"
   d="m 2365,836.8 -53.3,-126.5 h -41.4 l 75.4,164.5 -36.3,74 h 40.7 l 108.2,-237.1 0.7,-1.4 h -40.3 z"
   transform="matrix(0.0839486,0,0,0.08983811,12.768975,-16.368964)" /><path
   d="m 175.99025,52.817957 c -2.35897,-0.889399 -2.55204,-1.509276 -2.55204,-2.066275 0,-0.296469 0.0923,-1.751849 1.84686,-1.751849 1.92242,0 2.64439,1.805754 2.66957,1.877623 l 0.11752,0.314434 2.41775,-1.302658 -0.10077,-0.269513 c -0.19307,-0.52106 -1.34317,-3.099412 -4.68432,-3.252142 -2.98858,-0.134756 -5.02012,1.518267 -5.17124,4.222392 -0.1679,3.01856 2.37576,4.141541 4.77668,4.968052 2.4513,0.835494 2.4513,1.688954 2.4513,2.057292 0,0.197643 -0.0588,1.922536 -2.24143,1.922536 -2.53525,0 -2.97176,-1.949492 -2.98858,-2.030336 l -0.0839,-0.404277 -2.70317,1.482328 0.14273,0.278503 c 1.1165,2.201031 2.94658,3.324003 5.43146,3.324003 2.6444,0 5.31393,-1.536232 5.31393,-4.47394 0.008,-3.144333 -2.56881,-4.114583 -4.64233,-4.896173 z"
   id="path41"
   style="stroke-width:0.0868441" /><path
   d="m 31.34832,48.735265 c -3.33276,-1.248749 -3.870034,-2.227982 -3.870034,-3.332992 0,-1.105009 0.59604,-2.901774 3.013759,-2.901774 3.030543,0 4.147062,2.919741 4.147062,2.919741 l 2.66117,-1.428429 c -0.562456,-1.491312 -2.358956,-4.123568 -6.228988,-4.303248 -3.584603,-0.161707 -6.623543,1.635058 -6.850203,5.52505 -0.218275,3.809134 2.904618,5.336384 6.430461,6.549197 3.525841,1.212816 3.735713,2.524452 3.735713,3.315028 0,0.799557 -0.428137,3.153315 -3.567817,3.153315 -3.970764,0 -4.617171,-3.216202 -4.617171,-3.216202 l -2.946597,1.617086 c 1.477499,2.901771 3.895218,4.446984 7.286738,4.446984 3.391524,0 7.068473,-1.904568 7.068473,-5.857444 0.0084,-3.952877 -2.929806,-5.237561 -6.262566,-6.486312 z"
   id="path40"
   style="stroke-width:0.0868441" />
<path
   class="st0"
   d="M 9.252904,41.180192 C 9.0914347,41.021208 8.8194865,41.140446 8.8194865,41.374506 v 0.755176 c -1.5849487,0.3268 -3.0466707,1.104057 -4.2576904,2.274357 -1.3597415,1.307204 -2.2903145,2.989787 -2.7024861,4.866685 -0.038243,0.167816 0.063738,0.331217 0.2252071,0.370963 0.021246,0.0044 0.042492,0.0088 0.067987,0.0088 0.1359741,0 0.2592007,-0.09716 0.2889451,-0.238476 0.7351102,-3.365166 3.2506318,-5.94866 6.3822863,-6.646425 v 0.830252 c 0,0.23406 0.2676991,0.353298 0.4334176,0.194314 L 10.417183,42.64638 c 0.08498,-0.08391 0.08498,-0.229644 0,-0.313552 z"
   id="path1"
   style="stroke-width:0.0433191" /><path
   class="st0"
   d="m 20.543007,49.301637 h -0.875333 c -0.327188,-1.656085 -1.100541,-3.245928 -2.213829,-4.526634 -1.304502,-1.505934 -2.957438,-2.490753 -4.78884,-2.848468 -0.161469,-0.03091 -0.318689,0.07949 -0.348434,0.247309 -0.02974,0.167816 0.07649,0.331217 0.237955,0.362131 3.191143,0.627104 5.7874,3.36075 6.501264,6.765662 h -0.73511 c -0.225207,0 -0.339936,0.278223 -0.186965,0.450456 l 1.100541,1.161468 c 0.08074,0.08832 0.220958,0.08832 0.301693,0 l 1.185524,-1.161468 c 0.16147,-0.172233 0.04674,-0.450456 -0.178466,-0.450456 z"
   id="path2"
   style="stroke-width:0.0433191" /><path
   class="st0"
   d="M 9.2996451,60.161145 C 5.577353,59.458964 2.9725983,56.367604 2.369213,53.55005 l 0.8710844,-0.01767 c 0.2252071,-0.0044 0.3356861,-0.287055 0.1742168,-0.454872 L 2.2459864,51.89838 c -0.084984,-0.08833 -0.220958,-0.08391 -0.3016926,0.0044 l -1.07504558,1.227712 c -0.15297091,0.172233 -0.0297443,0.450455 0.19546288,0.446039 l 0.6968674,-0.01325 c 0.2889451,1.514767 1.0750456,3.020701 2.256321,4.296991 1.3979842,1.510351 3.2336351,2.543748 5.1712667,2.910295 0.016997,0.0044 0.033993,0.0044 0.055239,0.0044 0.1402233,0 0.267699,-0.105989 0.2931942,-0.251725 0.029744,-0.167816 -0.076486,-0.331217 -0.2379548,-0.36213 z"
   id="path3"
   style="stroke-width:0.0433191" /><path
   class="st0"
   d="m 19.599687,52.958275 c -0.16147,-0.03533 -0.31869,0.07066 -0.352683,0.238476 -0.671373,3.347502 -3.271878,6.169472 -6.191073,6.82749 V 59.19399 c 0,-0.247308 -0.284696,-0.375379 -0.458913,-0.203146 l -1.228016,1.214463 c -0.08923,0.08832 -0.08923,0.242892 0,0.331217 l 1.228016,1.214463 c 0.174217,0.172233 0.458913,0.04416 0.458913,-0.203147 v -0.892078 c 1.495715,-0.309136 2.961687,-1.152636 4.172706,-2.411261 1.313001,-1.369031 2.235075,-3.113441 2.596257,-4.915263 0.03824,-0.172233 -0.06374,-0.335633 -0.225207,-0.370963 z"
   id="path4"
   style="stroke-width:0.0433191" /><path
   class="st0"
   d="M 10.786867,45.631762 5.9682641,48.54207 v 5.727834 l 4.7335989,2.866135 5.077777,-3.042788 v -5.511448 z m 4.3979,7.944784 -4.053729,-2.424494 v -4.61055 l 4.053729,2.398004 z m -4.30019,-1.854809 3.832784,2.287611 -1.801669,1.077548 -3.8072627,-2.274328 z m -0.352684,-5.224409 v 4.720947 l -3.9687259,2.437772 v -4.760718 z m -3.5863211,7.644498 1.5722212,-0.967156 3.8030279,2.269968 -1.614687,0.967155 z"
   id="path5"
   style="stroke-width:0.0433168" /></g>
</svg>
