<?xml version="1.0" encoding="UTF-8"?>
<!-- Generator: Adobe Illustrator 23.0.5, SVG Export Plug-In . SVG Version: 6.00 Build 0)  -->
<svg width="36728" height="8727.3" version="1.1" viewBox="0 0 36728 8727.3" xml:space="preserve" xmlns="http://www.w3.org/2000/svg"><defs><filter id="filter1" color-interpolation-filters="sRGB"><feColorMatrix result="fbSourceGraphic" type="saturate" values="1"/><feColorMatrix in="fbSourceGraphic" result="fbSourceGraphicAlpha" values="0 0 0 -1 0 0 0 0 -1 0 0 0 0 -1 0 0 0 0 1 0"/><feColorMatrix in="fbSourceGraphic" result="fbSourceGraphic" type="saturate" values="1"/><feColorMatrix in="fbSourceGraphic" result="fbSourceGraphicAlpha" values="0 0 0 -1 0 0 0 0 -1 0 0 0 0 -1 0 0 0 0 1 0"/><feColorMatrix in="fbSourceGraphic" type="saturate" values="1"/></filter></defs>
<style type="text/css">
	.st0{fill:#5E45FF;}
</style>
<g transform="matrix(2.5 0 0 2.5 15248 2820.5)">
	
	<g transform="matrix(3.8839 0 0 4.0334 -1956.8 -3188.3)" filter="url(#filter1)">
		<g transform="matrix(1.067 0 0 1.115 -126.46 30.84)"><g stroke-width="1.0262">
			<path d="m232.3 1115.5c-1.8472 3.9001-4.5152 6.7728-7.9017 8.8255-3.3864 1.9496-7.286 2.9759-11.699 2.9759-4.7204 0-8.9278-1.1286-12.622-3.2836-3.6943-2.2582-6.5676-5.3364-8.62-9.441-2.0524-4.1045-3.0786-8.8255-3.0786-14.162 0-5.4386 1.0262-10.159 3.0786-14.161s4.9257-7.1837 8.62-9.3388c3.6943-2.2572 7.9017-3.2836 12.622-3.2836 4.4126 0 8.3121 0.9242 11.699 2.8737 3.0786 1.7441 5.5414 4.4123 7.3886 7.7991l13.546-10.057c-2.3602-3.1804-5.3362-6.054-8.7226-8.3113-6.7728-4.6177-14.777-6.9782-23.808-6.9782-7.6964 0-14.777 1.744-21.037 5.3364-6.2598 3.4881-11.185 8.4146-14.777 14.776-3.5917 6.3628-5.4388 13.443-5.4388 21.448 0 8.0037 1.8471 15.085 5.4388 21.447 3.5917 6.2596 8.5174 11.186 14.777 14.675 6.2598 3.4885 13.238 5.3354 21.037 5.3354 9.1331 0 17.137-2.3595 23.91-6.875 4.0022-2.7705 7.286-6.1573 9.8514-10.16z"/>
			<path d="m328.25 1078.8c-3.6943-6.3628-8.7226-11.288-14.982-14.777-6.3624-3.5923-13.34-5.3364-20.934-5.3364-7.5938 0-14.572 1.7441-20.934 5.3364-6.3624 3.5914-11.391 8.5168-15.085 14.777-3.6943 6.3618-5.5414 13.442-5.5414 21.345 0 8.0037 1.8472 15.187 5.5414 21.447 3.6943 6.3628 8.7226 11.288 15.085 14.777 6.3624 3.5913 13.34 5.3364 20.934 5.3364 7.5938 0 14.572-1.7451 20.934-5.3364 6.3624-3.5918 11.391-8.5178 15.085-14.777 3.6943-6.2595 5.5414-13.443 5.5414-21.447-0.10263-7.9023-1.9497-14.983-5.644-21.345zm-14.367 35.711c-2.0524 4.1046-5.0284 7.286-8.7226 9.441-3.6942 2.2573-8.0042 3.2836-12.93 3.2836-4.9257 0-9.2357-1.1286-12.93-3.2836-3.7969-2.2582-6.6702-5.3364-8.8252-9.441-2.0524-4.1045-3.1812-8.9277-3.1812-14.264 0-5.4387 1.0262-10.16 3.1812-14.264 2.0524-4.1046 5.0283-7.1827 8.8252-9.3377 3.7969-2.155 8.1069-3.2847 12.93-3.2847 4.9257 0 9.1331 1.1297 12.93 3.2847 3.6943 2.155 6.6702 5.2331 8.7226 9.3377 2.0524 4.1045 3.1812 8.8255 3.1812 14.264 0 5.3364-1.0262 10.16-3.1812 14.264z"/>
			<path d="m400.9 1059.7v55.825l-36.84-55.825h-16.316v81.274h16.316v-55.723l36.84 55.723h16.316v-81.274z"/>
			<path d="m485.77 1059.7v55.825l-36.84-55.825h-16.316v81.274h16.316v-55.723l36.84 55.723h16.316v-81.274z"/>
			<path d="m569.09 1073v-13.238h-50.181v81.274h50.181v-13.238h-33.864v-21.55h30.375v-12.93h-30.375v-20.318z"/>
			<path d="m656.42 1059.8v13.136h21.653v68.036h16.316v-68.036h21.653v-13.136z"/>
			<path d="m957.61 1059.7h-18.984l-29.144 81.274h17.137l5.3359-15.495h32.325l5.3362 15.495h17.24zm-21.345 52.746 11.699-33.967 11.698 33.967z"/>
			<path d="m1042.8 1108.1c6.1571-1.6418 10.775-4.6177 13.853-8.9278 3.0788-4.31 4.618-9.1332 4.618-14.47 0-4.6178-1.1289-8.8255-3.2839-12.622-2.2574-3.7968-5.5413-6.7727-9.954-8.9277-4.4126-2.2573-9.7488-3.2837-16.008-3.2837h-32.53v81.172h16.316v-31.606h9.7489l17.958 31.606h18.882zm-11.391-10.877h-15.701v-23.808h15.701c4.4127 0 7.6963 1.0264 9.8513 3.0792 2.155 2.0518 3.284 4.9255 3.284 8.62 0 3.7969-1.129 6.7728-3.284 8.9278-2.155 2.0518-5.4386 3.1814-9.8513 3.1814z"/>
			<path d="m1128.1 1073v-13.238h-52.233v81.274h52.233v-13.238h-35.917v-21.55h32.428v-12.93h-32.53v-20.318z"/>
			<path d="m1267 1059.8-14.47 62.7-15.598-62.7h-18.164l-16.522 63.009-14.264-63.009h-17.445l21.858 81.274 19.087-0.1023 15.906-57.774 15.188 57.774h19.19l22.679-81.172z"/>
			<path d="m1294.8 1059.8v81.172h16.316v-81.172z"/>
			<path d="m1321.6 1059.8v13.136h21.652v68.036h16.317v-68.036h21.652v-13.136z"/>
			<path d="m1442.7 1059.8v33.352h-34.788v-33.352h-16.214v81.172h16.316v-34.582h34.788v34.582h16.316v-81.172z"/>
			<path d="m1648.4 1078.8c-3.6943-6.3628-8.7224-11.288-14.982-14.777-6.3624-3.5923-13.34-5.3364-21.037-5.3364-7.594 0-14.572 1.7441-20.934 5.3364-6.3624 3.5914-11.39 8.5168-15.085 14.777-3.6944 6.3618-5.5414 13.442-5.5414 21.345 0 8.0037 1.847 15.187 5.5414 21.447 3.6944 6.3628 8.7225 11.288 15.085 14.777 6.3625 3.5913 13.34 5.3364 20.934 5.3364 7.5939 0 14.572-1.7451 20.934-5.3364 6.3625-3.5918 11.391-8.5178 15.085-14.777 3.6945-6.2595 5.5415-13.443 5.5415-21.447 0-7.9023-1.847-14.983-5.5415-21.345zm-14.366 35.711c-2.0526 4.1046-5.0285 7.286-8.7227 9.441-3.6942 2.2573-8.0042 3.2836-12.93 3.2836-4.9259 0-9.2359-1.1286-12.93-3.2836-3.7969-2.2582-6.6703-5.3364-8.8253-9.441-2.0525-4.1045-3.1812-8.9277-3.1812-14.264 0-5.4387 1.0262-10.16 3.1812-14.264 2.0525-4.1046 5.0284-7.1827 8.8253-9.3377 3.797-2.155 8.1069-3.2847 12.93-3.2847 4.9258 0 9.2358 1.1297 12.93 3.2847s6.6701 5.2331 8.7227 9.3377c2.0521 4.1045 3.1811 8.8255 3.1811 14.264-0.1028 5.3364-1.129 10.16-3.1811 14.264z"/>
			<path d="m1683 1128.1v-68.242h-16.316v81.172h49.154v-12.93z"/>
			<path d="m1773.9 1059.8v50.181c0 5.5419-1.4365 9.7487-4.31 12.622-2.8733 2.8733-6.9781 4.4123-12.211 4.4123-5.2338 0-9.2359-1.4364-12.109-4.4123-2.8734-2.8737-4.31-7.0805-4.31-12.622v-50.181h-16.316v50.078c0 6.875 1.4369 12.725 4.3101 17.548 2.8732 4.72 6.7728 8.3122 11.699 10.775 4.9254 2.3595 10.364 3.5913 16.419 3.5913 6.157 0 11.698-1.2318 16.727-3.5913 5.0282-2.3605 9.0303-5.9519 12.006-10.775 2.9759-4.8232 4.5154-10.57 4.5154-17.548v-50.078z"/>
			<path d="m1800.4 1059.8v13.136h21.653v68.036h16.317v-68.036h21.652v-13.136z"/>
			<path d="m1871.5 1059.8v81.172h16.316v-81.172z"/>
			<path d="m1977.2 1078.8c-3.6942-6.3628-8.7224-11.288-14.982-14.777-6.3625-3.5923-13.34-5.3364-20.934-5.3364-7.5937 0-14.572 1.7441-20.934 5.3364-6.3623 3.5914-11.391 8.5168-15.085 14.777-3.6943 6.3618-5.5416 13.442-5.5416 21.345 0 8.0037 1.8473 15.187 5.5416 21.447 3.6943 6.3628 8.7226 11.288 15.085 14.777 6.3623 3.5913 13.34 5.3364 20.934 5.3364 7.594 0 14.572-1.7451 20.934-5.3364 6.3624-3.5918 11.391-8.5178 15.085-14.777 3.6944-6.2595 5.5414-13.443 5.5414-21.447-0.1025-7.9023-1.9496-14.983-5.644-21.345zm-14.367 35.711c-2.0523 4.1046-5.0284 7.286-8.7227 9.441-3.6941 2.2573-8.0042 3.2836-12.93 3.2836-4.9259 0-9.2359-1.1286-12.93-3.2836-3.7969-2.2582-6.6705-5.3364-8.7228-9.441-2.0523-4.1045-3.181-8.9277-3.181-14.264 0-5.4387 1.026-10.16 3.181-14.264 2.0523-4.1046 5.0283-7.1827 8.7228-9.3377 3.7968-2.155 8.1069-3.2847 12.93-3.2847 4.8229 0 9.1328 1.1297 12.93 3.2847 3.6943 2.155 6.5677 5.2331 8.7227 9.3377 2.0523 4.1045 3.1812 8.8255 3.1812 14.264 0 5.3364-1.0262 10.16-3.1812 14.264z"/>
			<path d="m2049.8 1059.7v55.825l-36.84-55.825h-16.316v81.274h16.316v-55.723l36.84 55.723h16.316v-81.274z"/>
			<path d="m638.67 1115.5c-1.8471 3.9001-4.5152 6.7728-7.9016 8.8255-3.3864 1.9496-7.2859 2.9759-11.699 2.9759-4.7205 0-8.9278-1.1286-12.622-3.2836-3.6943-2.2582-6.5676-5.3364-8.62-9.441-2.0524-4.1045-3.0786-8.8255-3.0786-14.162 0-5.4386 1.0262-10.159 3.0786-14.161 2.0524-4.0023 4.9257-7.1837 8.62-9.3388 3.6943-2.2572 7.9016-3.2836 12.622-3.2836 4.4126 0 8.3121 0.9242 11.699 2.8737 3.0786 1.7441 5.5414 4.4123 7.3886 7.7991l13.546-10.057c-2.3602-3.1804-5.3362-6.054-8.7226-8.3113-6.7729-4.6177-14.777-6.9782-23.808-6.9782-7.6964 0-14.777 1.744-21.037 5.3364-6.2598 3.4881-11.185 8.4146-14.777 14.776-3.5917 6.3628-5.4388 13.443-5.4388 21.448 0 8.0037 1.8471 15.085 5.4388 21.447 3.5917 6.2596 8.5174 11.186 14.777 14.675 6.2598 3.4885 13.238 5.3354 21.037 5.3354 9.1331 0 17.137-2.3595 23.91-6.875 4.0021-2.7705 7.2859-6.1573 9.8514-10.16z"/>
			<path d="m889.78 1115.5c-1.8471 3.9001-4.5152 6.7728-7.9016 8.8255-3.3864 1.9496-7.286 2.9759-11.699 2.9759-4.7205 0-8.9278-1.1286-12.622-3.2836-3.6943-2.2582-6.5676-5.3364-8.62-9.441-2.0524-4.1045-3.0786-8.8255-3.0786-14.162 0-5.4386 1.0262-10.159 3.0786-14.161 2.0524-4.0023 4.9257-7.1837 8.62-9.3388 3.6943-2.2572 7.9016-3.2836 12.622-3.2836 4.4126 0 8.3121 0.9242 11.699 2.8737 3.0786 1.7441 5.5414 4.4123 7.3886 7.7991l13.545-10.057c-2.36-3.1804-5.336-6.054-8.7224-8.3113-6.7728-4.6177-14.777-6.9782-23.808-6.9782-7.6964 0-14.777 1.744-21.037 5.3364-6.2598 3.4881-11.185 8.4146-14.777 14.776-3.5916 6.3628-5.4388 13.443-5.4388 21.448 0 8.0037 1.8471 15.085 5.4388 21.447 3.5917 6.2596 8.5174 11.186 14.777 14.675 6.2598 3.4885 13.238 5.3354 21.037 5.3354 9.1331 0 17.137-2.3595 23.91-6.875 4.002-2.7705 7.2858-6.1573 9.8512-10.16z"/>
			</g><g transform="matrix(1.0262 0 0 1.0262 -116.81 -57.878)">
				<path d="m2153.3 1145.9c0.5 2.1 1.3 4 2.5 5.6s2.9 2.8 4.9 3.6 4.5 1.2 7.4 1.2c4.4 0 7.7-1 9.9-2.9 2.2-2 3.3-4.4 3.3-7.3 0-2.3-0.7-4.2-2-5.7-1.4-1.5-3.3-2.8-5.7-3.9-2.5-1.1-5.3-2.1-8.6-3.1-3.1-0.9-6.1-1.9-9.1-2.9-2.9-1.1-5.6-2.4-8-4s-4.3-3.6-5.7-6.1-2.1-5.7-2.1-9.5c0-4.9 1.2-9 3.5-12.4s5.6-5.9 9.8-7.7 9-2.7 14.4-2.7c4.6 0 8.8 0.7 12.5 2s6.8 3.2 9.4 5.8c2.6 2.5 4.4 5.7 5.6 9.5l-14.2 3.7c-0.4-1.7-1.2-3.1-2.4-4.3s-2.8-2.2-4.7-2.9-3.9-1.1-5.9-1.1c-2.3-0.1-4.4 0.3-6.3 1-1.9 0.8-3.4 1.9-4.5 3.3s-1.6 3.1-1.6 5c0 2.1 0.6 3.8 1.9 5s3 2.3 5.2 3.2 4.5 1.7 7 2.5c3.2 1 6.4 2 9.6 3.2 3.2 1.1 6.1 2.6 8.8 4.4 2.6 1.8 4.8 4 6.3 6.7 1.6 2.7 2.4 6.1 2.4 10.2 0 4.5-1 8.5-3.1 12-2.1 3.6-5.2 6.4-9.3 8.5s-9.3 3.2-15.5 3.2c-5.2 0-9.9-0.8-14.1-2.3s-7.6-3.8-10.4-6.6c-2.7-2.9-4.5-6.3-5.3-10.3z"/>
			
			
				<path d="m1593.6 1145.9c0.5 2.1 1.3 4 2.5 5.6s2.9 2.8 4.9 3.6 4.5 1.2 7.4 1.2c4.4 0 7.7-1 9.9-2.9 2.2-2 3.3-4.4 3.3-7.3 0-2.3-0.7-4.2-2-5.7-1.4-1.5-3.3-2.8-5.7-3.9-2.5-1.1-5.3-2.1-8.6-3.1-3.1-0.9-6.1-1.9-9.1-2.9-2.9-1.1-5.6-2.4-8-4s-4.3-3.6-5.7-6.1-2.1-5.7-2.1-9.5c0-4.9 1.2-9 3.5-12.4s5.6-5.9 9.8-7.7 9-2.7 14.4-2.7c4.6 0 8.8 0.7 12.5 2s6.8 3.2 9.4 5.8c2.6 2.5 4.4 5.7 5.6 9.5l-14.2 3.7c-0.4-1.7-1.2-3.1-2.4-4.3s-2.8-2.2-4.7-2.9-3.9-1.1-5.9-1.1c-2.3-0.1-4.4 0.3-6.3 1-1.9 0.8-3.4 1.9-4.5 3.3s-1.6 3.1-1.6 5c0 2.1 0.6 3.8 1.9 5s3 2.3 5.2 3.2 4.5 1.7 7 2.5c3.2 1 6.4 2 9.6 3.2 3.2 1.1 6.1 2.6 8.8 4.4 2.6 1.8 4.8 4 6.3 6.7 1.6 2.7 2.4 6.1 2.4 10.2 0 4.5-1 8.5-3.1 12-2.1 3.6-5.2 6.4-9.3 8.5s-9.3 3.2-15.5 3.2c-5.2 0-9.9-0.8-14.1-2.3s-7.6-3.8-10.4-6.6c-2.7-2.9-4.5-6.3-5.3-10.3z"/>
			
			
				<path d="m832.4 1145.9c0.5 2.1 1.3 4 2.5 5.6s2.9 2.8 4.9 3.6 4.5 1.2 7.4 1.2c4.4 0 7.7-1 9.9-2.9 2.2-2 3.3-4.4 3.3-7.3 0-2.3-0.7-4.2-2-5.7-1.4-1.5-3.3-2.8-5.7-3.9-2.5-1.1-5.3-2.1-8.6-3.1-3.1-0.9-6.1-1.9-9.1-2.9-2.9-1.1-5.6-2.4-8-4s-4.3-3.6-5.7-6.1-2.1-5.7-2.1-9.5c0-4.9 1.2-9 3.5-12.4s5.6-5.9 9.8-7.7 9-2.7 14.4-2.7c4.6 0 8.8 0.7 12.5 2s6.8 3.2 9.4 5.8c2.6 2.5 4.4 5.7 5.6 9.5l-14.2 3.7c-0.4-1.7-1.2-3.1-2.4-4.3s-2.8-2.2-4.7-2.9-3.9-1.1-5.9-1.1c-2.3-0.1-4.4 0.3-6.3 1-1.9 0.8-3.4 1.9-4.5 3.3s-1.6 3.1-1.6 5c0 2.1 0.6 3.8 1.9 5s3 2.3 5.2 3.2 4.5 1.7 7 2.5c3.2 1 6.4 2 9.6 3.2 3.2 1.1 6.1 2.6 8.8 4.4 2.6 1.8 4.8 4 6.3 6.7 1.6 2.7 2.4 6.1 2.4 10.2 0 4.5-1 8.5-3.1 12-2.1 3.6-5.2 6.4-9.3 8.5s-9.3 3.2-15.5 3.2c-5.2 0-9.9-0.8-14.1-2.3s-7.6-3.8-10.4-6.6c-2.7-2.9-4.5-6.3-5.3-10.3z"/>
			</g>
		</g>
		<g transform="matrix(1.3028 0 0 1.3615 -822.57 -238.2)"><g stroke-width="1.0303">
			<path d="m389.31 766.3c0 16.473-4.0465 29.057-11.932 37.345-7.8856 8.2874-18.988 12.482-32.891 12.482-14.215 0-24.902-4.0925-31.75-12.073-6.9518-8.0828-10.48-20.054-10.48-35.605v-97.812h-37.871v101.9c0 16.473 3.009 30.387 8.9231 41.437 5.9142 11.05 14.526 19.644 25.421 25.272 10.895 5.7296 23.864 8.5944 38.494 8.5944 11.413 0 21.789-2.0463 31.127-5.9342 8.5081-3.6833 15.771-8.7991 21.582-15.449l2.4902 18.928h34.344v-174.85h-37.456z"/>
			<path d="m603.77 679.33c-12.036-7.4689-26.043-11.255-41.607-11.255-14.422 0-26.769 2.8648-36.834 8.3898-8.9232 4.9111-16.186 10.948-21.685 17.803l0.62259-23.737h-35.381v244.02h35.07v-91.469c4.9804 5.9342 11.31 11.05 18.988 15.449 10.791 6.1388 23.968 9.3106 39.22 9.3106 15.979 0 30.193-3.7856 42.229-11.255 12.036-7.469 21.582-18.007 28.222-31.513 6.7442-13.403 10.064-29.262 10.064-47.167 0-18.007-3.5277-33.968-10.48-47.269-6.848-13.301-16.394-23.839-28.43-31.308zm1.1413 78.679c0 17.393-4.6691 31.615-13.903 42.153-9.2344 10.538-21.374 15.859-36.211 15.859-9.5457 0-18.261-2.3532-25.732-6.9573-7.4705-4.6042-13.696-11.255-18.158-19.849-4.5653-8.5944-6.848-19.133-6.848-31.308 0-12.482 2.2826-23.123 6.848-31.717 4.5654-8.5944 10.687-15.142 18.158-19.644 7.4706-4.5018 16.186-6.7527 25.732-6.7527 14.837 0 26.977 5.3203 36.211 15.859 9.2344 10.743 13.903 24.965 13.903 42.358z"/>
			<path d="m809.21 679.33c-12.036-7.4689-26.043-11.255-41.607-11.255-14.422 0-26.769 2.8648-36.834 8.3898-8.9231 4.9111-16.186 10.948-21.685 17.803l0.62255-23.737h-35.381v244.02h35.174v-91.469c4.9804 5.9342 11.31 11.05 18.988 15.449 10.791 6.1388 23.968 9.3106 39.22 9.3106 15.979 0 30.193-3.7856 42.229-11.255 12.036-7.469 21.582-18.007 28.222-31.513 6.7442-13.403 10.064-29.262 10.064-47.167 0-18.007-3.5277-33.968-10.479-47.269-6.848-13.301-16.497-23.839-28.533-31.308zm1.2451 78.679c0 17.393-4.6691 31.615-13.903 42.153-9.2344 10.538-21.374 15.859-36.211 15.859-9.5457 0-18.261-2.3532-25.732-6.9573-7.4705-4.6042-13.696-11.255-18.158-19.849-4.5653-8.5944-6.848-19.133-6.848-31.308 0-12.482 2.2827-23.123 6.848-31.717 4.5653-8.5944 10.687-15.142 18.158-19.644 7.4705-4.5018 16.186-6.7527 25.732-6.7527 14.837 0 26.977 5.3203 36.211 15.859 9.2344 10.743 13.903 24.965 13.903 42.358z"/>
			<rect x="883.09" y="604.74" width="35.07" height="240.74"/>
			</g><polygon transform="matrix(1.0376 0 0 1.0231 12.252 -56.205)" points="976.3 948.8 1085.2 710.3 1044.9 710.3 991.2 836.8 937.9 710.3 896.5 710.3 971.9 874.8 935.7 948.8"/>
			<polygon transform="matrix(1.0376 0 0 1.0231 -77.168 -56.205)" points="1269 881.2 1269 727.7 1343 880.7 1343.2 881.2 1380.8 881.2 1453 727.8 1453 881.2 1490.6 881.2 1490.6 647.7 1451.8 647.7 1363.2 838 1271.5 648.3 1271.2 647.7 1231 647.7 1231 881.2"/><g stroke-width="1.0303">
			<rect x="1514.6" y="670.53" width="37.456" height="174.85"/>
			<rect x="1515.7" y="608.68" width="37.456" height="31.82"/>
			<rect x="1796.7" y="670.53" width="37.456" height="174.85"/>
			<rect x="1797.9" y="606.48" width="37.456" height="31.82"/>
			<path d="m1723.1 676.67c-10.894-5.7296-23.968-8.5944-38.702-8.5944-11.517 0-22.1 2.0463-31.646 5.9343-8.6118 3.581-15.875 8.5944-21.789 14.836l-0.2075-18.417h-36.834v174.85h37.871v-95.254c0-16.473 4.0466-29.057 11.932-37.549 7.8857-8.3898 19.195-12.585 33.514-12.585 13.8 0 24.487 4.0926 31.75 12.278 7.2627 8.1851 10.998 20.36 10.998 36.117v97.096h37.872v-101.29c0-16.677-3.0091-30.797-9.0271-41.949-6.2253-11.152-14.837-19.747-25.732-25.476z"/>
			<path d="m2075.4 789.73v-89.116h43.785v-29.057h-43.785v-44.302l-35.381 4.0926v40.209h-27.288v29.057h27.288v99.142c0 29.466 17.742 45.837 43.681 45.837 25.94 0 36.523-4.7064 36.523-4.7064l-0.2076-32.741c-24.487 12.482-44.615 1.7394-44.615-18.417z"/>
			<path d="m2233.2 670.22c-8.5076 1.6371-16.497 4.5019-23.76 8.5944-6.4329 3.6833-12.347 8.0828-17.431 13.403l-0.2077-21.588h-37.768v174.85h38.805v-90.548c0-10.129 1.9713-18.928 5.7067-26.192 3.8387-7.162 8.923-13.096 15.148-17.393 6.2258-4.3995 13.385-7.2643 21.27-8.5944 7.8855-1.3301 16.186-1.1254 24.591 0.7162l1.2447 0.30695v-32.843l-0.8298-0.20459c-9.2347-2.0463-18.262-2.1486-26.77-0.51161z"/>
			</g><polygon transform="matrix(1.0376 0 0 1.0231 -77.168 -56.205)" points="2309.4 948.8 2350.1 948.8 2458.3 711.7 2459 710.3 2418.7 710.3 2365 836.8 2311.7 710.3 2270.3 710.3 2345.7 874.8"/>
			
			<path d="m1940.2 739.08c-29.156-10.129-31.542-17.189-31.542-23.532 0-3.3764 1.1413-19.951 22.827-19.951 23.76 0 32.684 20.565 32.995 21.384l1.4525 3.581 29.882-14.836-1.2454-3.0694c-2.3863-5.9342-16.601-35.298-57.897-37.038-36.938-1.5347-62.047 17.291-63.915 48.088-2.0752 34.377 29.364 47.167 59.038 56.58 30.297 9.5152 30.297 19.235 30.297 23.43 0 2.2509-0.7265 21.895-27.703 21.895-31.335 0-36.73-22.202-36.938-23.123l-1.0373-4.6042-33.41 16.882 1.7641 3.1717c13.8 25.067 36.419 37.856 67.131 37.856 32.684 0 65.678-17.496 65.678-50.952 0.1038-35.81-31.75-46.86-57.378-55.761z" stroke-width="1.0303"/>
		<path d="m154.71 706.24c-41.192-14.222-47.832-25.374-47.832-37.958 0-12.585 7.3668-33.047 37.249-33.047 37.456 0 51.256 33.252 51.256 33.252l32.891-16.268c-6.9518-16.984-29.156-46.962-76.988-49.008-44.304-1.8416-81.865 18.621-84.666 62.923-2.6978 43.381 35.9 60.775 79.478 74.587 43.578 13.812 46.172 28.75 46.172 37.754 0 9.1059-5.2916 35.912-44.097 35.912-49.077 0-57.067-36.628-57.067-36.628l-36.419 18.417c18.261 33.047 48.143 50.645 90.061 50.645 41.918 0 87.364-21.691 87.364-66.709 0.10377-45.018-36.211-59.649-77.403-73.871z" stroke-width="1.0303"/></g>
	</g>
<g transform="matrix(6.9184 0 0 7.1904 -5873 -2657.6)">
		<g transform="matrix(.39414 0 0 .39414 183.22 357.05)">
			<path class="st0" d="m320.48 343.07c-3.8-3.6-10.2-0.9-10.2 4.4v17.1c-37.3 7.4-71.7 25-100.2 51.5-32 29.6-53.9 67.7-63.6 110.2-0.9 3.8 1.5 7.5 5.3 8.4 0.5 0.1 1 0.2 1.6 0.2 3.2 0 6.1-2.2 6.8-5.4 17.3-76.2 76.5-134.7 150.2-150.5v18.8c0 5.3 6.3 8 10.2 4.4l27.3-25.9c2-1.9 2-5.2 0-7.1z"/>
			<path class="st0" d="m586.18 526.97h-20.6c-7.7-37.5-25.9-73.5-52.1-102.5-30.7-34.1-69.6-56.4-112.7-64.5-3.8-0.7-7.5 1.8-8.2 5.6s1.8 7.5 5.6 8.2c75.1 14.2 136.2 76.1 153 153.2h-17.3c-5.3 0-8 6.3-4.4 10.2l25.9 26.3c1.9 2 5.2 2 7.1 0l27.9-26.3c3.8-3.9 1.1-10.2-4.2-10.2z"/>
			<path class="st0" d="m321.58 772.87c-87.6-15.9-148.9-85.9-163.1-149.7l20.5-0.4c5.3-0.1 7.9-6.5 4.1-10.3l-27.5-26.7c-2-2-5.2-1.9-7.1 0.1l-25.3 27.8c-3.6 3.9-0.7 10.2 4.6 10.1l16.4-0.3c6.8 34.3 25.3 68.4 53.1 97.3 32.9 34.2 76.1 57.6 121.7 65.9 0.4 0.1 0.8 0.1 1.3 0.1 3.3 0 6.3-2.4 6.9-5.7 0.7-3.8-1.8-7.5-5.6-8.2z"/>
			<path class="st0" d="m563.98 609.77c-3.8-0.8-7.5 1.6-8.3 5.4-15.8 75.8-77 139.7-145.7 154.6v-18.8c0-5.6-6.7-8.5-10.8-4.6l-28.9 27.5c-2.1 2-2.1 5.5 0 7.5l28.9 27.5c4.1 3.9 10.8 1 10.8-4.6v-20.2c35.2-7 69.7-26.1 98.2-54.6 30.9-31 52.6-70.5 61.1-111.3 0.9-3.9-1.5-7.6-5.3-8.4z"/>
		</g>
		<path class="st0" d="m323.76 532-44.696 25.974v51.12l43.908 25.58 47.1-27.157v-49.189zm40.794 70.906-37.601-21.638v-41.149l37.601 21.402zm-39.887-16.554 35.552 20.417-16.712 9.617-35.315-20.298zm-3.2714-46.627v42.134l-36.813 21.757v-42.489zm-33.266 68.226 14.583-8.6317 35.276 20.259-14.977 8.6317z" stroke-width=".39413"/>
	</g></g>
</svg>
